<svg width="174" height="38" viewBox="0 0 174 38" fill="none" xmlns="http://www.w3.org/2000/svg">
<g filter="url(#filter0_i_94_8659)">
<rect width="174" height="38" rx="19" fill="url(#paint0_linear_94_8659)"/>
<path d="M41.46 14.6C42.332 14.6 43.06 14.876 43.644 15.428C44.228 15.972 44.52 16.7 44.52 17.612C44.52 18.524 44.228 19.256 43.644 19.808C43.06 20.352 42.332 20.624 41.46 20.624H40.5V23H38.1V14.6H41.46ZM41.46 18.296C41.644 18.296 41.8 18.236 41.928 18.116C42.056 17.988 42.12 17.82 42.12 17.612C42.12 17.404 42.056 17.24 41.928 17.12C41.8 16.992 41.644 16.928 41.46 16.928H40.5V18.296H41.46ZM47.6367 20.672H50.3967V23H45.2367V14.6H47.6367V20.672ZM56.2139 23L55.9259 21.92H53.5019L53.2139 23H50.6339L53.3099 14.6H56.1179L58.7939 23H56.2139ZM54.0179 20H55.4099L54.7139 17.42L54.0179 20ZM65.6857 14.6L62.8417 19.808V23H60.4417V19.808L57.5977 14.6H60.2617L61.6417 17.552L63.0217 14.6H65.6857ZM73.9059 16.928H71.0859V18.02H73.8459V20.348H71.0859V23H68.6859V14.6H73.9059V16.928ZM82.2869 21.932C81.4309 22.772 80.3789 23.192 79.1309 23.192C77.8829 23.192 76.8269 22.772 75.9629 21.932C75.1069 21.084 74.6789 20.04 74.6789 18.8C74.6789 17.56 75.1069 16.52 75.9629 15.68C76.8269 14.832 77.8829 14.408 79.1309 14.408C80.3789 14.408 81.4309 14.832 82.2869 15.68C83.1509 16.52 83.5829 17.56 83.5829 18.8C83.5829 20.04 83.1509 21.084 82.2869 21.932ZM77.6549 20.264C78.0469 20.648 78.5389 20.84 79.1309 20.84C79.7229 20.84 80.2109 20.648 80.5949 20.264C80.9869 19.872 81.1829 19.384 81.1829 18.8C81.1829 18.216 80.9869 17.732 80.5949 17.348C80.2109 16.956 79.7229 16.76 79.1309 16.76C78.5389 16.76 78.0469 16.956 77.6549 17.348C77.2709 17.732 77.0789 18.216 77.0789 18.8C77.0789 19.384 77.2709 19.872 77.6549 20.264ZM88.8148 22.988L87.4828 20.348H86.8828V22.988H84.4828V14.588H87.8428C88.7628 14.588 89.5228 14.86 90.1228 15.404C90.7228 15.94 91.0228 16.652 91.0228 17.54C91.0228 18.036 90.9068 18.484 90.6748 18.884C90.4508 19.284 90.1348 19.608 89.7268 19.856L91.3828 22.988H88.8148ZM86.8828 16.796V18.356H87.7948C88.0508 18.364 88.2508 18.3 88.3948 18.164C88.5468 18.028 88.6228 17.836 88.6228 17.588C88.6228 17.34 88.5468 17.148 88.3948 17.012C88.2508 16.868 88.0508 16.796 87.7948 16.796H86.8828ZM103.145 14.6V23H100.745V18.908L98.8732 22.052H98.6572L96.7852 18.908V23H94.3852V14.6H96.7852L98.7652 18.02L100.745 14.6H103.145ZM111.654 21.932C110.798 22.772 109.746 23.192 108.498 23.192C107.25 23.192 106.194 22.772 105.33 21.932C104.474 21.084 104.046 20.04 104.046 18.8C104.046 17.56 104.474 16.52 105.33 15.68C106.194 14.832 107.25 14.408 108.498 14.408C109.746 14.408 110.798 14.832 111.654 15.68C112.518 16.52 112.95 17.56 112.95 18.8C112.95 20.04 112.518 21.084 111.654 21.932ZM107.022 20.264C107.414 20.648 107.906 20.84 108.498 20.84C109.09 20.84 109.578 20.648 109.962 20.264C110.354 19.872 110.55 19.384 110.55 18.8C110.55 18.216 110.354 17.732 109.962 17.348C109.578 16.956 109.09 16.76 108.498 16.76C107.906 16.76 107.414 16.956 107.022 17.348C106.638 17.732 106.446 18.216 106.446 18.8C106.446 19.384 106.638 19.872 107.022 20.264ZM118.41 14.6H120.81V23H118.89L116.25 19.16V23H113.85V14.6H115.77L118.41 18.44V14.6ZM124.406 20.792H127.526V23H122.006V14.6H127.466V16.784H124.406V17.696H127.166V19.856H124.406V20.792ZM135.975 14.6L133.131 19.808V23H130.731V19.808L127.887 14.6H130.551L131.931 17.552L133.311 14.6H135.975Z" fill="white"/>
</g>
<defs>
<filter id="filter0_i_94_8659" x="0" y="0" width="174" height="38" filterUnits="userSpaceOnUse" color-interpolation-filters="sRGB">
<feFlood flood-opacity="0" result="BackgroundImageFix"/>
<feBlend mode="normal" in="SourceGraphic" in2="BackgroundImageFix" result="shape"/>
<feColorMatrix in="SourceAlpha" type="matrix" values="0 0 0 0 0 0 0 0 0 0 0 0 0 0 0 0 0 0 127 0" result="hardAlpha"/>
<feOffset/>
<feGaussianBlur stdDeviation="10"/>
<feComposite in2="hardAlpha" operator="arithmetic" k2="-1" k3="1"/>
<feColorMatrix type="matrix" values="0 0 0 0 0.148341 0 0 0 0 0.0103056 0 0 0 0 0.441667 0 0 0 1 0"/>
<feBlend mode="normal" in2="shape" result="effect1_innerShadow_94_8659"/>
</filter>
<linearGradient id="paint0_linear_94_8659" x1="11.198" y1="5.34375" x2="158.746" y2="60.3197" gradientUnits="userSpaceOnUse">
<stop stop-color="#C100AD"/>
<stop offset="1" stop-color="#4DC1C8"/>
</linearGradient>
</defs>
</svg>
