<svg width="56" height="40" viewBox="0 0 56 40" fill="none" xmlns="http://www.w3.org/2000/svg">
<path d="M47 0H5C2.23857 0 0 2.23858 0 5V35C0 37.7614 2.23857 40 5 40H47L56 20.5L47 0Z" fill="url(#paint0_linear_83_7768)"/>
<path d="M7.95 9.68C8.14333 9.74333 8.29667 9.85 8.41 10C8.52333 10.1467 8.58 10.33 8.58 10.55C8.58 10.8533 8.46333 11.0883 8.23 11.255C7.99667 11.4183 7.65667 11.5 7.21 11.5H5.47V8H7.11C7.52333 8 7.84167 8.08167 8.065 8.245C8.28833 8.405 8.4 8.62667 8.4 8.91C8.4 9.08333 8.36 9.23667 8.28 9.37C8.2 9.50333 8.09 9.60667 7.95 9.68ZM6.12 8.51V9.475H7.04C7.26667 9.475 7.44 9.435 7.56 9.355C7.68333 9.27167 7.745 9.15167 7.745 8.995C7.745 8.835 7.68333 8.715 7.56 8.635C7.44 8.55167 7.26667 8.51 7.04 8.51H6.12ZM7.17 10.99C7.67333 10.99 7.925 10.8217 7.925 10.485C7.925 10.1483 7.67333 9.98 7.17 9.98H6.12V10.99H7.17ZM10.9087 11.55C10.552 11.55 10.2304 11.4733 9.94371 11.32C9.65704 11.1633 9.43204 10.9483 9.26871 10.675C9.10538 10.3983 9.02371 10.09 9.02371 9.75C9.02371 9.41 9.10538 9.10333 9.26871 8.83C9.43204 8.55333 9.65704 8.33833 9.94371 8.185C10.2304 8.02833 10.552 7.95 10.9087 7.95C11.2654 7.95 11.587 8.02833 11.8737 8.185C12.1604 8.33833 12.3854 8.55167 12.5487 8.825C12.712 9.09833 12.7937 9.40667 12.7937 9.75C12.7937 10.0933 12.712 10.4017 12.5487 10.675C12.3854 10.9483 12.1604 11.1633 11.8737 11.32C11.587 11.4733 11.2654 11.55 10.9087 11.55ZM10.9087 10.98C11.142 10.98 11.352 10.9283 11.5387 10.825C11.7254 10.7183 11.872 10.5717 11.9787 10.385C12.0854 10.195 12.1387 9.98333 12.1387 9.75C12.1387 9.51667 12.0854 9.30667 11.9787 9.12C11.872 8.93 11.7254 8.78333 11.5387 8.68C11.352 8.57333 11.142 8.52 10.9087 8.52C10.6754 8.52 10.4654 8.57333 10.2787 8.68C10.092 8.78333 9.94538 8.93 9.83871 9.12C9.73204 9.30667 9.67871 9.51667 9.67871 9.75C9.67871 9.98333 9.73204 10.195 9.83871 10.385C9.94538 10.5717 10.092 10.7183 10.2787 10.825C10.4654 10.9283 10.6754 10.98 10.9087 10.98ZM16.5927 8V11.5H16.0577L14.1277 9.13V11.5H13.4827V8H14.0177L15.9477 10.37V8H16.5927ZM19.0355 11.55C18.5522 11.55 18.1755 11.415 17.9055 11.145C17.6355 10.8717 17.5005 10.4817 17.5005 9.975V8H18.1505V9.95C18.1505 10.6367 18.4472 10.98 19.0405 10.98C19.6305 10.98 19.9255 10.6367 19.9255 9.95V8H20.5655V9.975C20.5655 10.4817 20.4305 10.8717 20.1605 11.145C19.8939 11.415 19.5189 11.55 19.0355 11.55ZM22.5609 11.55C22.2909 11.55 22.0292 11.5117 21.7759 11.435C21.5259 11.3583 21.3275 11.2567 21.1809 11.13L21.4059 10.625C21.5492 10.7383 21.7242 10.8317 21.9309 10.905C22.1409 10.975 22.3509 11.01 22.5609 11.01C22.8209 11.01 23.0142 10.9683 23.1409 10.885C23.2709 10.8017 23.3359 10.6917 23.3359 10.555C23.3359 10.455 23.2992 10.3733 23.2259 10.31C23.1559 10.2433 23.0659 10.1917 22.9559 10.155C22.8459 10.1183 22.6959 10.0767 22.5059 10.03C22.2392 9.96667 22.0225 9.90333 21.8559 9.84C21.6925 9.77667 21.5509 9.67833 21.4309 9.545C21.3142 9.40833 21.2559 9.225 21.2559 8.995C21.2559 8.80167 21.3075 8.62667 21.4109 8.47C21.5175 8.31 21.6759 8.18333 21.8859 8.09C22.0992 7.99667 22.3592 7.95 22.6659 7.95C22.8792 7.95 23.0892 7.97667 23.2959 8.03C23.5025 8.08333 23.6809 8.16 23.8309 8.26L23.6259 8.765C23.4725 8.675 23.3125 8.60667 23.1459 8.56C22.9792 8.51333 22.8175 8.49 22.6609 8.49C22.4042 8.49 22.2125 8.53333 22.0859 8.62C21.9625 8.70667 21.9009 8.82167 21.9009 8.965C21.9009 9.065 21.9359 9.14667 22.0059 9.21C22.0792 9.27333 22.1709 9.32333 22.2809 9.36C22.3909 9.39667 22.5409 9.43833 22.7309 9.485C22.9909 9.545 23.2042 9.60833 23.3709 9.675C23.5375 9.73833 23.6792 9.83667 23.7959 9.97C23.9159 10.1033 23.9759 10.2833 23.9759 10.51C23.9759 10.7033 23.9225 10.8783 23.8159 11.035C23.7125 11.1917 23.5542 11.3167 23.3409 11.41C23.1275 11.5033 22.8675 11.55 22.5609 11.55ZM7.86 14.71H8.475V16.105C8.295 16.2483 8.085 16.3583 7.845 16.435C7.605 16.5117 7.35833 16.55 7.105 16.55C6.74833 16.55 6.42667 16.4733 6.14 16.32C5.85333 16.1633 5.62833 15.9483 5.465 15.675C5.30167 15.4017 5.22 15.0933 5.22 14.75C5.22 14.4067 5.30167 14.0983 5.465 13.825C5.62833 13.5517 5.85333 13.3383 6.14 13.185C6.43 13.0283 6.755 12.95 7.115 12.95C7.40833 12.95 7.675 12.9983 7.915 13.095C8.155 13.1917 8.35667 13.3333 8.52 13.52L8.11 13.92C7.84333 13.6533 7.52167 13.52 7.145 13.52C6.89833 13.52 6.67833 13.5717 6.485 13.675C6.295 13.7783 6.145 13.9233 6.035 14.11C5.92833 14.2967 5.875 14.51 5.875 14.75C5.875 14.9833 5.92833 15.1933 6.035 15.38C6.145 15.5667 6.295 15.7133 6.485 15.82C6.67833 15.9267 6.89667 15.98 7.14 15.98C7.41333 15.98 7.65333 15.92 7.86 15.8V14.71ZM11.6023 15.69H9.8523L9.5073 16.5H8.8373L10.4123 13H11.0523L12.6323 16.5H11.9523L11.6023 15.69ZM11.3873 15.18L10.7273 13.65L10.0723 15.18H11.3873ZM16.2924 16.5L16.2874 14.18L15.1374 16.1H14.8474L13.6974 14.21V16.5H13.0774V13H13.6124L15.0024 15.32L16.3674 13H16.9024L16.9074 16.5H16.2924ZM20.4778 15.955V16.5H17.8528V13H20.4078V13.545H18.5028V14.455H20.1928V14.99H18.5028V15.955H20.4778Z" fill="white"/>
<path d="M9.746 31.668C8.934 31.668 8.21067 31.4673 7.576 31.066C6.94133 30.6647 6.442 30.086 6.078 29.33C5.72333 28.5647 5.546 27.6547 5.546 26.6C5.546 25.5453 5.72333 24.64 6.078 23.884C6.442 23.1187 6.94133 22.5353 7.576 22.134C8.21067 21.7327 8.934 21.532 9.746 21.532C10.558 21.532 11.2813 21.7327 11.916 22.134C12.5507 22.5353 13.0453 23.1187 13.4 23.884C13.764 24.64 13.946 25.5453 13.946 26.6C13.946 27.6547 13.764 28.5647 13.4 29.33C13.0453 30.086 12.5507 30.6647 11.916 31.066C11.2813 31.4673 10.558 31.668 9.746 31.668ZM9.746 29.75C10.3433 29.75 10.81 29.4933 11.146 28.98C11.4913 28.4667 11.664 27.6733 11.664 26.6C11.664 25.5267 11.4913 24.7333 11.146 24.22C10.81 23.7067 10.3433 23.45 9.746 23.45C9.158 23.45 8.69133 23.7067 8.346 24.22C8.01 24.7333 7.842 25.5267 7.842 26.6C7.842 27.6733 8.01 28.4667 8.346 28.98C8.69133 29.4933 9.158 29.75 9.746 29.75ZM18.3865 19.712H20.3325L15.7125 32.9H13.7665L18.3865 19.712ZM23.6169 25.382C24.9983 25.382 26.0156 25.6573 26.6689 26.208C27.3316 26.7587 27.6629 27.496 27.6629 28.42C27.6629 29.0173 27.5136 29.5633 27.2149 30.058C26.9163 30.5433 26.4589 30.9353 25.8429 31.234C25.2363 31.5233 24.4849 31.668 23.5889 31.668C22.8983 31.668 22.2169 31.5793 21.5449 31.402C20.8823 31.2153 20.3176 30.954 19.8509 30.618L20.7469 28.882C21.1203 29.162 21.5496 29.3813 22.0349 29.54C22.5203 29.6893 23.0196 29.764 23.5329 29.764C24.1023 29.764 24.5503 29.652 24.8769 29.428C25.2036 29.204 25.3669 28.8913 25.3669 28.49C25.3669 28.07 25.1943 27.7527 24.8489 27.538C24.5129 27.3233 23.9249 27.216 23.0849 27.216H20.5789L21.0829 21.7H27.0609V23.52H22.9729L22.8189 25.382H23.6169Z" fill="white"/>
<defs>
<linearGradient id="paint0_linear_83_7768" x1="52.396" y1="5.625" x2="-0.990215" y2="11.7068" gradientUnits="userSpaceOnUse">
<stop stop-color="#C100AD"/>
<stop offset="1" stop-color="#4DC1C8"/>
</linearGradient>
</defs>
</svg>
