<svg width="38" height="38" viewBox="0 0 38 38" fill="none" xmlns="http://www.w3.org/2000/svg">
<rect width="38" height="38" rx="19" fill="url(#paint0_linear_6_1268)"/>
<rect width="38" height="38" rx="19" fill="url(#paint1_linear_6_1268)" fill-opacity="0.6"/>
<path fill-rule="evenodd" clip-rule="evenodd" d="M19.7848 7.44998C20.8239 7.44998 21.7167 8.16546 21.9122 9.15494L21.9991 9.59495C22.3408 11.3244 24.1859 12.3572 25.9016 11.7794L26.3383 11.6323C27.3199 11.3017 28.4054 11.6936 28.9249 12.5661L29.7097 13.8839C30.2293 14.7564 30.0365 15.8637 29.2504 16.5225L28.9008 16.8155C27.5267 17.9672 27.5267 20.0328 28.9008 21.1844L29.2504 21.4774C30.0365 22.1363 30.2293 23.2436 29.7097 24.1161L28.925 25.4339C28.4054 26.3064 27.3199 26.6982 26.3382 26.3676L25.9017 26.2205C24.1859 25.6426 22.3408 26.6754 21.9991 28.4049L21.9122 28.845C21.7167 29.8345 20.8239 30.55 19.7848 30.55H18.2152C17.1761 30.55 16.2833 29.8345 16.0878 28.8451L16.0008 28.4048C15.6591 26.6754 13.8139 25.6426 12.0982 26.2205L11.6618 26.3675C10.6802 26.6982 9.59465 26.3063 9.07505 25.4338L8.2903 24.1161C7.77072 23.2436 7.96345 22.1363 8.74956 21.4774L9.09922 21.1844C10.4732 20.0327 10.4732 17.9672 9.09922 16.8156L8.74956 16.5225C7.96345 15.8637 7.77072 14.7564 8.2903 13.8839L9.07508 12.5661C9.59466 11.6936 10.6801 11.3018 11.6618 11.6324L12.0983 11.7794C13.814 12.3572 15.6591 11.3245 16.0008 9.59506L16.0878 9.15487C16.2833 8.16542 17.176 7.44998 18.2152 7.44998H19.7848ZM19 22.3C20.8225 22.3 22.3 20.8225 22.3 19C22.3 17.1774 20.8225 15.7 19 15.7C17.1774 15.7 15.7 17.1774 15.7 19C15.7 20.8225 17.1774 22.3 19 22.3Z" fill="url(#paint2_linear_6_1268)"/>
<defs>
<linearGradient id="paint0_linear_6_1268" x1="2.44554" y1="5.34375" x2="38.9007" y2="8.31018" gradientUnits="userSpaceOnUse">
<stop stop-color="#006F68"/>
<stop offset="1" stop-color="#13B623"/>
</linearGradient>
<linearGradient id="paint1_linear_6_1268" x1="19" y1="0" x2="19" y2="38" gradientUnits="userSpaceOnUse">
<stop stop-color="white"/>
<stop offset="1" stop-color="white" stop-opacity="0"/>
</linearGradient>
<linearGradient id="paint2_linear_6_1268" x1="20.1859" y1="7.44998" x2="20.1859" y2="30.55" gradientUnits="userSpaceOnUse">
<stop stop-color="white"/>
<stop offset="1" stop-color="#E2E9EC"/>
</linearGradient>
</defs>
</svg>
