<svg width="26" height="15" viewBox="0 0 26 15" fill="none" xmlns="http://www.w3.org/2000/svg">
<path d="M0 6.31302C0 3.08877 3.00666 0.707449 6.1452 1.44593L9.31441 2.19163C11.5739 2.72328 13.926 2.72328 16.1856 2.19163L19.3548 1.44593C22.4933 0.707451 25.5 3.08877 25.5 6.31301V10C25.5 12.7614 23.2614 15 20.5 15H5C2.23858 15 0 12.7614 0 10V6.31302Z" fill="#3652B5"/>
<path d="M8.30344 8.368C8.85277 8.368 9.30877 8.53333 9.67144 8.864C10.0394 9.18933 10.2234 9.648 10.2234 10.24C10.2234 10.8267 10.0261 11.2853 9.63144 11.616C9.23677 11.9467 8.7541 12.112 8.18344 12.112C7.71944 12.112 7.31144 12.0133 6.95944 11.816C6.60744 11.6133 6.34877 11.312 6.18344 10.912L7.28744 10.272C7.4261 10.6667 7.72477 10.864 8.18344 10.864C8.4341 10.864 8.62344 10.8053 8.75144 10.688C8.87944 10.5707 8.94344 10.4213 8.94344 10.24C8.94344 10.0587 8.8821 9.90933 8.75944 9.792C8.63677 9.67467 8.4581 9.616 8.22344 9.616H6.47144L6.70344 6.4H9.94344V7.6H7.90344L7.84744 8.368H8.30344ZM11.1419 12.8H10.6619L13.8619 5.6H14.3419L11.1419 12.8ZM16.8581 8.368C17.4075 8.368 17.8635 8.53333 18.2261 8.864C18.5941 9.18933 18.7781 9.648 18.7781 10.24C18.7781 10.8267 18.5808 11.2853 18.1861 11.616C17.7915 11.9467 17.3088 12.112 16.7381 12.112C16.2741 12.112 15.8661 12.0133 15.5141 11.816C15.1621 11.6133 14.9035 11.312 14.7381 10.912L15.8421 10.272C15.9808 10.6667 16.2795 10.864 16.7381 10.864C16.9888 10.864 17.1781 10.8053 17.3061 10.688C17.4341 10.5707 17.4981 10.4213 17.4981 10.24C17.4981 10.0587 17.4368 9.90933 17.3141 9.792C17.1915 9.67467 17.0128 9.616 16.7781 9.616H15.0261L15.2581 6.4H18.4981V7.6H16.4581L16.4021 8.368H16.8581Z" fill="white"/>
</svg>
