<svg width="26" height="15" viewBox="0 0 26 15" fill="none" xmlns="http://www.w3.org/2000/svg">
<path d="M0 6.31301C0 3.08877 3.00666 0.707449 6.1452 1.44593L9.31441 2.19163C11.5739 2.72328 13.926 2.72328 16.1856 2.19163L19.3548 1.44593C22.4933 0.70745 25.5 3.08877 25.5 6.31301V10C25.5 12.7614 23.2614 15 20.5 15H5C2.23858 15 0 12.7614 0 10V6.31301Z" fill="#D80027"/>
<path d="M9.29953 8.368C9.84886 8.368 10.3049 8.53333 10.6675 8.864C11.0355 9.18933 11.2195 9.648 11.2195 10.24C11.2195 10.8267 11.0222 11.2853 10.6275 11.616C10.2329 11.9467 9.7502 12.112 9.17953 12.112C8.71553 12.112 8.30753 12.0133 7.95553 11.816C7.60353 11.6133 7.34486 11.312 7.17953 10.912L8.28353 10.272C8.4222 10.6667 8.72086 10.864 9.17953 10.864C9.4302 10.864 9.61953 10.8053 9.74753 10.688C9.87553 10.5707 9.93953 10.4213 9.93953 10.24C9.93953 10.0587 9.8782 9.90933 9.75553 9.792C9.63286 9.67467 9.4542 9.616 9.21953 9.616H7.46753L7.69953 6.4H10.9395V7.6H8.89953L8.84353 8.368H9.29953ZM12.9177 11.888C12.7684 12.0373 12.5897 12.112 12.3817 12.112C12.1737 12.112 11.9951 12.0373 11.8457 11.888C11.6964 11.7387 11.6217 11.56 11.6217 11.352C11.6217 11.144 11.6964 10.9653 11.8457 10.816C11.9951 10.6667 12.1737 10.592 12.3817 10.592C12.5897 10.592 12.7684 10.6667 12.9177 10.816C13.0671 10.9653 13.1417 11.144 13.1417 11.352C13.1417 11.56 13.0671 11.7387 12.9177 11.888ZM15.9599 8.168C16.5146 8.21067 16.9626 8.41333 17.3039 8.776C17.6506 9.13867 17.8239 9.592 17.8239 10.136C17.8239 10.7173 17.6292 11.192 17.2399 11.56C16.8559 11.928 16.3572 12.112 15.7439 12.112C15.1252 12.112 14.6239 11.928 14.2399 11.56C13.8559 11.192 13.6639 10.7173 13.6639 10.136C13.6639 9.704 13.7732 9.32533 13.9919 9L15.7039 6.4H17.1759L15.9599 8.168ZM15.1759 10.704C15.3306 10.8427 15.5199 10.912 15.7439 10.912C15.9679 10.912 16.1572 10.8427 16.3119 10.704C16.4666 10.56 16.5439 10.3707 16.5439 10.136C16.5439 9.90133 16.4666 9.71467 16.3119 9.576C16.1572 9.432 15.9679 9.36 15.7439 9.36C15.5199 9.36 15.3306 9.42933 15.1759 9.568C15.0212 9.70667 14.9439 9.896 14.9439 10.136C14.9439 10.376 15.0212 10.5653 15.1759 10.704Z" fill="white"/>
</svg>
