<svg width="38" height="38" viewBox="0 0 38 38" fill="none" xmlns="http://www.w3.org/2000/svg">
<rect width="38" height="38" rx="14" fill="url(#paint0_linear_28_2581)"/>
<rect width="38" height="38" rx="14" fill="url(#paint1_linear_28_2581)" fill-opacity="0.2"/>
<path d="M10.0469 20.792H13.1669V23H7.64688V14.6H13.1069V16.784H10.0469V17.696H12.8069V19.856H10.0469V20.792ZM18.6873 14.6H21.0873V23H19.1673L16.5273 19.16V23H14.1273V14.6H16.0473L18.6873 18.44V14.6ZM30.6476 18.044V19.04C30.6476 20.24 30.2596 21.232 29.4836 22.016C28.7156 22.8 27.7036 23.192 26.4476 23.192C25.1356 23.192 24.0636 22.776 23.2316 21.944C22.3996 21.104 21.9836 20.06 21.9836 18.812C21.9836 17.564 22.3996 16.52 23.2316 15.68C24.0636 14.832 25.1036 14.408 26.3516 14.408C27.1356 14.408 27.8516 14.584 28.4996 14.936C29.1556 15.288 29.6716 15.764 30.0476 16.364L28.0076 17.528C27.6716 17.016 27.1356 16.76 26.3996 16.76C25.7996 16.76 25.3116 16.952 24.9356 17.336C24.5676 17.72 24.3836 18.216 24.3836 18.824C24.3836 19.4 24.5556 19.904 24.8996 20.336C25.2436 20.76 25.7756 20.972 26.4956 20.972C27.3276 20.972 27.8836 20.676 28.1636 20.084H26.3756V18.044H30.6476Z" fill="white"/>
<defs>
<linearGradient id="paint0_linear_28_2581" x1="2.44554" y1="5.34375" x2="38.9007" y2="8.31018" gradientUnits="userSpaceOnUse">
<stop stop-color="#252525"/>
<stop offset="0.994" stop-color="#383838"/>
</linearGradient>
<linearGradient id="paint1_linear_28_2581" x1="19" y1="0" x2="19" y2="38" gradientUnits="userSpaceOnUse">
<stop stop-color="white"/>
<stop offset="1" stop-color="white" stop-opacity="0"/>
</linearGradient>
</defs>
</svg>
