<svg width="69" height="38" viewBox="0 0 69 38" fill="none" xmlns="http://www.w3.org/2000/svg">
<g filter="url(#filter0_i_5_205)">
<rect width="69" height="38" rx="19" fill="url(#paint0_linear_5_205)"/>
<path d="M23.96 14.6C24.832 14.6 25.56 14.876 26.144 15.428C26.728 15.972 27.02 16.7 27.02 17.612C27.02 18.524 26.728 19.256 26.144 19.808C25.56 20.352 24.832 20.624 23.96 20.624H23V23H20.6V14.6H23.96ZM23.96 18.296C24.144 18.296 24.3 18.236 24.428 18.116C24.556 17.988 24.62 17.82 24.62 17.612C24.62 17.404 24.556 17.24 24.428 17.12C24.3 16.992 24.144 16.928 23.96 16.928H23V18.296H23.96ZM30.1367 20.672H32.8967V23H27.7367V14.6H30.1367V20.672ZM38.7139 23L38.4259 21.92H36.0019L35.7139 23H33.1339L35.8099 14.6H38.6179L41.2939 23H38.7139ZM36.5179 20H37.9099L37.2139 17.42L36.5179 20ZM48.1857 14.6L45.3417 19.808V23H42.9417V19.808L40.0977 14.6H42.7617L44.1417 17.552L45.5217 14.6H48.1857Z" fill="white"/>
</g>
<defs>
<filter id="filter0_i_5_205" x="0" y="0" width="69" height="38" filterUnits="userSpaceOnUse" color-interpolation-filters="sRGB">
<feFlood flood-opacity="0" result="BackgroundImageFix"/>
<feBlend mode="normal" in="SourceGraphic" in2="BackgroundImageFix" result="shape"/>
<feColorMatrix in="SourceAlpha" type="matrix" values="0 0 0 0 0 0 0 0 0 0 0 0 0 0 0 0 0 0 127 0" result="hardAlpha"/>
<feOffset/>
<feGaussianBlur stdDeviation="10"/>
<feComposite in2="hardAlpha" operator="arithmetic" k2="-1" k3="1"/>
<feColorMatrix type="matrix" values="0 0 0 0 0.148341 0 0 0 0 0.0103056 0 0 0 0 0.441667 0 0 0 1 0"/>
<feBlend mode="normal" in2="shape" result="effect1_innerShadow_5_205"/>
</filter>
<linearGradient id="paint0_linear_5_205" x1="4.44059" y1="5.34375" x2="69.6502" y2="14.9788" gradientUnits="userSpaceOnUse">
<stop stop-color="#C100AD"/>
<stop offset="1" stop-color="#4DC1C8"/>
</linearGradient>
</defs>
</svg>
