<svg width="315" height="38" viewBox="0 0 315 38" fill="none" xmlns="http://www.w3.org/2000/svg">
<g clip-path="url(#clip0_2036_10074)">
<rect x="0.5" y="0.5" width="314" height="37" rx="13.5" fill="#0F1830" stroke="url(#paint0_linear_2036_10074)"/>
<g filter="url(#filter0_f_2036_10074)">
<path d="M67.2181 -4L67.2181 2.3871L157.903 14L248.588 2.3871L248.588 -3.99999L67.2181 -4Z" fill="url(#paint1_linear_2036_10074)"/>
</g>
<path d="M103.371 17.78V20.2H100.071V23.5H97.6505V20.2H94.3705V17.78H97.6505V14.5H100.071V17.78H103.371ZM108.304 12H110.704V26H107.944V14.92L105.304 15.66L104.624 13.3L108.304 12ZM118.439 26.28C116.692 26.28 115.319 25.62 114.319 24.3C113.332 22.9667 112.839 21.2 112.839 19C112.839 16.8 113.332 15.04 114.319 13.72C115.319 12.3867 116.692 11.72 118.439 11.72C120.199 11.72 121.572 12.3867 122.559 13.72C123.545 15.04 124.039 16.8 124.039 19C124.039 21.2 123.545 22.9667 122.559 24.3C121.572 25.62 120.199 26.28 118.439 26.28ZM116.319 22.42C116.799 23.1933 117.505 23.58 118.439 23.58C119.372 23.58 120.079 23.1867 120.559 22.4C121.052 21.6133 121.299 20.48 121.299 19C121.299 17.5067 121.052 16.3667 120.559 15.58C120.079 14.7933 119.372 14.4 118.439 14.4C117.505 14.4 116.799 14.7933 116.319 15.58C115.839 16.3667 115.599 17.5067 115.599 19C115.599 20.4933 115.839 21.6333 116.319 22.42ZM131.036 26.28C129.29 26.28 127.916 25.62 126.916 24.3C125.93 22.9667 125.436 21.2 125.436 19C125.436 16.8 125.93 15.04 126.916 13.72C127.916 12.3867 129.29 11.72 131.036 11.72C132.796 11.72 134.17 12.3867 135.156 13.72C136.143 15.04 136.636 16.8 136.636 19C136.636 21.2 136.143 22.9667 135.156 24.3C134.17 25.62 132.796 26.28 131.036 26.28ZM128.916 22.42C129.396 23.1933 130.103 23.58 131.036 23.58C131.97 23.58 132.676 23.1867 133.156 22.4C133.65 21.6133 133.896 20.48 133.896 19C133.896 17.5067 133.65 16.3667 133.156 15.58C132.676 14.7933 131.97 14.4 131.036 14.4C130.103 14.4 129.396 14.7933 128.916 15.58C128.436 16.3667 128.196 17.5067 128.196 19C128.196 20.4933 128.436 21.6333 128.916 22.42ZM148.634 26.28C146.887 26.28 145.514 25.62 144.514 24.3C143.527 22.9667 143.034 21.2 143.034 19C143.034 16.8 143.527 15.04 144.514 13.72C145.514 12.3867 146.887 11.72 148.634 11.72C150.394 11.72 151.767 12.3867 152.754 13.72C153.741 15.04 154.234 16.8 154.234 19C154.234 21.2 153.741 22.9667 152.754 24.3C151.767 25.62 150.394 26.28 148.634 26.28ZM146.514 22.42C146.994 23.1933 147.701 23.58 148.634 23.58C149.567 23.58 150.274 23.1867 150.754 22.4C151.247 21.6133 151.494 20.48 151.494 19C151.494 17.5067 151.247 16.3667 150.754 15.58C150.274 14.7933 149.567 14.4 148.634 14.4C147.701 14.4 146.994 14.7933 146.514 15.58C146.034 16.3667 145.794 17.5067 145.794 19C145.794 20.4933 146.034 21.6333 146.514 22.42ZM161.232 26.28C159.485 26.28 158.112 25.62 157.112 24.3C156.125 22.9667 155.632 21.2 155.632 19C155.632 16.8 156.125 15.04 157.112 13.72C158.112 12.3867 159.485 11.72 161.232 11.72C162.992 11.72 164.365 12.3867 165.352 13.72C166.338 15.04 166.832 16.8 166.832 19C166.832 21.2 166.338 22.9667 165.352 24.3C164.365 25.62 162.992 26.28 161.232 26.28ZM159.112 22.42C159.592 23.1933 160.298 23.58 161.232 23.58C162.165 23.58 162.872 23.1867 163.352 22.4C163.845 21.6133 164.092 20.48 164.092 19C164.092 17.5067 163.845 16.3667 163.352 15.58C162.872 14.7933 162.165 14.4 161.232 14.4C160.298 14.4 159.592 14.7933 159.112 15.58C158.632 16.3667 158.392 17.5067 158.392 19C158.392 20.4933 158.632 21.6333 159.112 22.42ZM173.829 26.28C172.083 26.28 170.709 25.62 169.709 24.3C168.723 22.9667 168.229 21.2 168.229 19C168.229 16.8 168.723 15.04 169.709 13.72C170.709 12.3867 172.083 11.72 173.829 11.72C175.589 11.72 176.963 12.3867 177.949 13.72C178.936 15.04 179.429 16.8 179.429 19C179.429 21.2 178.936 22.9667 177.949 24.3C176.963 25.62 175.589 26.28 173.829 26.28ZM171.709 22.42C172.189 23.1933 172.896 23.58 173.829 23.58C174.763 23.58 175.469 23.1867 175.949 22.4C176.443 21.6133 176.689 20.48 176.689 19C176.689 17.5067 176.443 16.3667 175.949 15.58C175.469 14.7933 174.763 14.4 173.829 14.4C172.896 14.4 172.189 14.7933 171.709 15.58C171.229 16.3667 170.989 17.5067 170.989 19C170.989 20.4933 171.229 21.6333 171.709 22.42ZM194.787 14.64H189.187V17.96H194.627V20.6H189.187V26H186.427V12H194.787V14.64ZM205.173 26L204.333 23.48H198.753L197.913 26H194.933L199.833 12H203.253L208.173 26H205.173ZM199.633 20.9H203.473L201.553 15.18L199.633 20.9ZM217.632 12H220.392V26H218.292L212.292 17.44V26H209.532V12H211.632L217.632 20.54V12Z" fill="url(#paint2_linear_2036_10074)"/>
</g>
<defs>
<filter id="filter0_f_2036_10074" x="43.2181" y="-28" width="229.37" height="66" filterUnits="userSpaceOnUse" color-interpolation-filters="sRGB">
<feFlood flood-opacity="0" result="BackgroundImageFix"/>
<feBlend mode="normal" in="SourceGraphic" in2="BackgroundImageFix" result="shape"/>
<feGaussianBlur stdDeviation="12" result="effect1_foregroundBlur_2036_10074"/>
</filter>
<linearGradient id="paint0_linear_2036_10074" x1="20.2723" y1="5.34375" x2="229.342" y2="146.368" gradientUnits="userSpaceOnUse">
<stop stop-color="#C100AD"/>
<stop offset="1" stop-color="#4DC1C8"/>
</linearGradient>
<linearGradient id="paint1_linear_2036_10074" x1="67.2181" y1="-0.806452" x2="248.588" y2="-0.806444" gradientUnits="userSpaceOnUse">
<stop stop-color="#3BD0FF"/>
<stop offset="1" stop-color="#FF40CA"/>
</linearGradient>
<linearGradient id="paint2_linear_2036_10074" x1="164.454" y1="12" x2="164.454" y2="26" gradientUnits="userSpaceOnUse">
<stop stop-color="white"/>
<stop offset="1" stop-color="#E2E9EC"/>
</linearGradient>
<clipPath id="clip0_2036_10074">
<rect width="315" height="38" fill="white"/>
</clipPath>
</defs>
</svg>
