<svg width="64" height="38" viewBox="0 0 64 38" fill="none" xmlns="http://www.w3.org/2000/svg">
<rect x="0.5" y="0.5" width="63" height="37" rx="13.5" fill="#F1F1F1" fill-opacity="0.05" stroke="url(#paint0_linear_2039_10311)"/>
<path d="M26.0826 12.604H28.0026V13H25.6626V8.8H26.0826V12.604ZM28.946 9.28C28.89 9.336 28.822 9.364 28.742 9.364C28.662 9.364 28.594 9.336 28.538 9.28C28.482 9.224 28.454 9.156 28.454 9.076C28.454 8.996 28.482 8.928 28.538 8.872C28.594 8.816 28.662 8.788 28.742 8.788C28.822 8.788 28.89 8.816 28.946 8.872C29.002 8.928 29.03 8.996 29.03 9.076C29.03 9.156 29.002 9.224 28.946 9.28ZM28.544 13V10H28.94V13H28.544ZM31.1844 9.928C31.5484 9.928 31.8344 10.04 32.0424 10.264C32.2544 10.484 32.3604 10.782 32.3604 11.158V13H31.9644V11.158C31.9644 10.89 31.8924 10.682 31.7484 10.534C31.6084 10.386 31.4084 10.312 31.1484 10.312C30.8604 10.312 30.6264 10.404 30.4464 10.588C30.2664 10.768 30.1764 11.048 30.1764 11.428V13H29.7804V10H30.1764V10.468C30.4004 10.108 30.7364 9.928 31.1844 9.928ZM34.5121 9.928C34.9561 9.928 35.3141 10.086 35.5861 10.402C35.8621 10.714 36.0001 11.084 36.0001 11.512C36.0001 11.556 35.9961 11.618 35.9881 11.698H33.3541C33.3941 12.002 33.5221 12.244 33.7381 12.424C33.9581 12.6 34.2281 12.688 34.5481 12.688C34.7761 12.688 34.9721 12.642 35.1361 12.55C35.3041 12.454 35.4301 12.33 35.5141 12.178L35.8621 12.382C35.7301 12.594 35.5501 12.762 35.3221 12.886C35.0941 13.01 34.8341 13.072 34.5421 13.072C34.0701 13.072 33.6861 12.924 33.3901 12.628C33.0941 12.332 32.9461 11.956 32.9461 11.5C32.9461 11.052 33.0921 10.678 33.3841 10.378C33.6761 10.078 34.0521 9.928 34.5121 9.928ZM34.5121 10.312C34.2001 10.312 33.9381 10.406 33.7261 10.594C33.5181 10.778 33.3941 11.018 33.3541 11.314H35.5921C35.5521 10.998 35.4301 10.752 35.2261 10.576C35.0221 10.4 34.7841 10.312 34.5121 10.312ZM36.8248 10.786C36.8248 10.922 36.8848 11.03 37.0048 11.11C37.1248 11.19 37.2708 11.252 37.4428 11.296C37.6148 11.34 37.7868 11.39 37.9588 11.446C38.1308 11.498 38.2768 11.588 38.3968 11.716C38.5168 11.84 38.5768 12.004 38.5768 12.208C38.5768 12.464 38.4748 12.672 38.2708 12.832C38.0708 12.992 37.8108 13.072 37.4908 13.072C37.2028 13.072 36.9568 13.008 36.7528 12.88C36.5528 12.752 36.4128 12.586 36.3328 12.382L36.6688 12.184C36.7248 12.34 36.8248 12.464 36.9688 12.556C37.1168 12.644 37.2908 12.688 37.4908 12.688C37.6868 12.688 37.8508 12.65 37.9828 12.574C38.1148 12.494 38.1808 12.372 38.1808 12.208C38.1808 12.072 38.1208 11.964 38.0008 11.884C37.8808 11.804 37.7348 11.742 37.5628 11.698C37.3908 11.654 37.2188 11.606 37.0468 11.554C36.8748 11.498 36.7288 11.408 36.6088 11.284C36.4888 11.156 36.4288 10.99 36.4288 10.786C36.4288 10.542 36.5248 10.338 36.7168 10.174C36.9128 10.01 37.1588 9.928 37.4548 9.928C37.6988 9.928 37.9128 9.984 38.0968 10.096C38.2808 10.204 38.4168 10.352 38.5048 10.54L38.1748 10.732C38.0588 10.452 37.8188 10.312 37.4548 10.312C37.2828 10.312 37.1348 10.354 37.0108 10.438C36.8868 10.518 36.8248 10.634 36.8248 10.786Z" fill="white"/>
<path d="M34.1535 22.904C35.0588 23.4453 35.5115 24.234 35.5115 25.27C35.5115 26.1753 35.1942 26.8893 34.5595 27.412C33.9342 27.9347 33.0802 28.196 31.9975 28.196C30.9055 28.196 30.0468 27.9347 29.4215 27.412C28.7962 26.8893 28.4835 26.1753 28.4835 25.27C28.4835 24.234 28.9315 23.4453 29.8275 22.904C29.1462 22.4093 28.8055 21.7327 28.8055 20.874C28.8055 19.9687 29.1088 19.264 29.7155 18.76C30.3315 18.256 31.0922 18.004 31.9975 18.004C32.9028 18.004 33.6588 18.256 34.2655 18.76C34.8722 19.264 35.1755 19.9687 35.1755 20.874C35.1755 21.742 34.8348 22.4187 34.1535 22.904ZM32.9075 20.132C32.6742 19.9267 32.3708 19.824 31.9975 19.824C31.6242 19.824 31.3208 19.9267 31.0875 20.132C30.8542 20.3373 30.7375 20.6173 30.7375 20.972C30.7375 21.3267 30.8542 21.6113 31.0875 21.826C31.3208 22.0313 31.6242 22.134 31.9975 22.134C32.3708 22.134 32.6742 22.0313 32.9075 21.826C33.1408 21.6113 33.2575 21.3267 33.2575 20.972C33.2575 20.6173 33.1408 20.3373 32.9075 20.132ZM30.8355 26.026C31.1342 26.2593 31.5215 26.376 31.9975 26.376C32.4735 26.376 32.8562 26.2593 33.1455 26.026C33.4442 25.7833 33.5935 25.4473 33.5935 25.018C33.5935 24.598 33.4442 24.2713 33.1455 24.038C32.8562 23.7953 32.4735 23.674 31.9975 23.674C31.5215 23.674 31.1342 23.7953 30.8355 24.038C30.5462 24.2713 30.4015 24.598 30.4015 25.018C30.4015 25.4473 30.5462 25.7833 30.8355 26.026Z" fill="url(#paint1_linear_2039_10311)"/>
<defs>
<linearGradient id="paint0_linear_2039_10311" x1="4.11881" y1="5.34375" x2="64.7841" y2="13.6578" gradientUnits="userSpaceOnUse">
<stop stop-color="#C100AD"/>
<stop offset="1" stop-color="#4DC1C8"/>
</linearGradient>
<linearGradient id="paint1_linear_2039_10311" x1="32.4312" y1="18" x2="32.4312" y2="28" gradientUnits="userSpaceOnUse">
<stop stop-color="white"/>
<stop offset="1" stop-color="#E2E9EC"/>
</linearGradient>
</defs>
</svg>
