<svg width="330" height="280" viewBox="0 0 330 280" fill="none" xmlns="http://www.w3.org/2000/svg">
<path d="M55.4264 22H5C2.23857 22 0 24.2386 0 27V59C0 61.7614 2.23857 64 5 64H55.4264L65 43L55.4264 22Z" fill="url(#paint0_radial_83_7763)"/>
<path d="M7.95 31.68C8.14333 31.7433 8.29667 31.85 8.41 32C8.52333 32.1467 8.58 32.33 8.58 32.55C8.58 32.8533 8.46333 33.0883 8.23 33.255C7.99667 33.4183 7.65667 33.5 7.21 33.5H5.47V30H7.11C7.52333 30 7.84167 30.0817 8.065 30.245C8.28833 30.405 8.4 30.6267 8.4 30.91C8.4 31.0833 8.36 31.2367 8.28 31.37C8.2 31.5033 8.09 31.6067 7.95 31.68ZM6.12 30.51V31.475H7.04C7.26667 31.475 7.44 31.435 7.56 31.355C7.68333 31.2717 7.745 31.1517 7.745 30.995C7.745 30.835 7.68333 30.715 7.56 30.635C7.44 30.5517 7.26667 30.51 7.04 30.51H6.12ZM7.17 32.99C7.67333 32.99 7.925 32.8217 7.925 32.485C7.925 32.1483 7.67333 31.98 7.17 31.98H6.12V32.99H7.17ZM10.9087 33.55C10.552 33.55 10.2304 33.4733 9.94371 33.32C9.65704 33.1633 9.43204 32.9483 9.26871 32.675C9.10538 32.3983 9.02371 32.09 9.02371 31.75C9.02371 31.41 9.10538 31.1033 9.26871 30.83C9.43204 30.5533 9.65704 30.3383 9.94371 30.185C10.2304 30.0283 10.552 29.95 10.9087 29.95C11.2654 29.95 11.587 30.0283 11.8737 30.185C12.1604 30.3383 12.3854 30.5517 12.5487 30.825C12.712 31.0983 12.7937 31.4067 12.7937 31.75C12.7937 32.0933 12.712 32.4017 12.5487 32.675C12.3854 32.9483 12.1604 33.1633 11.8737 33.32C11.587 33.4733 11.2654 33.55 10.9087 33.55ZM10.9087 32.98C11.142 32.98 11.352 32.9283 11.5387 32.825C11.7254 32.7183 11.872 32.5717 11.9787 32.385C12.0854 32.195 12.1387 31.9833 12.1387 31.75C12.1387 31.5167 12.0854 31.3067 11.9787 31.12C11.872 30.93 11.7254 30.7833 11.5387 30.68C11.352 30.5733 11.142 30.52 10.9087 30.52C10.6754 30.52 10.4654 30.5733 10.2787 30.68C10.092 30.7833 9.94538 30.93 9.83871 31.12C9.73204 31.3067 9.67871 31.5167 9.67871 31.75C9.67871 31.9833 9.73204 32.195 9.83871 32.385C9.94538 32.5717 10.092 32.7183 10.2787 32.825C10.4654 32.9283 10.6754 32.98 10.9087 32.98ZM16.5927 30V33.5H16.0577L14.1277 31.13V33.5H13.4827V30H14.0177L15.9477 32.37V30H16.5927ZM19.0355 33.55C18.5522 33.55 18.1755 33.415 17.9055 33.145C17.6355 32.8717 17.5005 32.4817 17.5005 31.975V30H18.1505V31.95C18.1505 32.6367 18.4472 32.98 19.0405 32.98C19.6305 32.98 19.9255 32.6367 19.9255 31.95V30H20.5655V31.975C20.5655 32.4817 20.4305 32.8717 20.1605 33.145C19.8939 33.415 19.5189 33.55 19.0355 33.55ZM22.5609 33.55C22.2909 33.55 22.0292 33.5117 21.7759 33.435C21.5259 33.3583 21.3275 33.2567 21.1809 33.13L21.4059 32.625C21.5492 32.7383 21.7242 32.8317 21.9309 32.905C22.1409 32.975 22.3509 33.01 22.5609 33.01C22.8209 33.01 23.0142 32.9683 23.1409 32.885C23.2709 32.8017 23.3359 32.6917 23.3359 32.555C23.3359 32.455 23.2992 32.3733 23.2259 32.31C23.1559 32.2433 23.0659 32.1917 22.9559 32.155C22.8459 32.1183 22.6959 32.0767 22.5059 32.03C22.2392 31.9667 22.0225 31.9033 21.8559 31.84C21.6925 31.7767 21.5509 31.6783 21.4309 31.545C21.3142 31.4083 21.2559 31.225 21.2559 30.995C21.2559 30.8017 21.3075 30.6267 21.4109 30.47C21.5175 30.31 21.6759 30.1833 21.8859 30.09C22.0992 29.9967 22.3592 29.95 22.6659 29.95C22.8792 29.95 23.0892 29.9767 23.2959 30.03C23.5025 30.0833 23.6809 30.16 23.8309 30.26L23.6259 30.765C23.4725 30.675 23.3125 30.6067 23.1459 30.56C22.9792 30.5133 22.8175 30.49 22.6609 30.49C22.4042 30.49 22.2125 30.5333 22.0859 30.62C21.9625 30.7067 21.9009 30.8217 21.9009 30.965C21.9009 31.065 21.9359 31.1467 22.0059 31.21C22.0792 31.2733 22.1709 31.3233 22.2809 31.36C22.3909 31.3967 22.5409 31.4383 22.7309 31.485C22.9909 31.545 23.2042 31.6083 23.3709 31.675C23.5375 31.7383 23.6792 31.8367 23.7959 31.97C23.9159 32.1033 23.9759 32.2833 23.9759 32.51C23.9759 32.7033 23.9225 32.8783 23.8159 33.035C23.7125 33.1917 23.5542 33.3167 23.3409 33.41C23.1275 33.5033 22.8675 33.55 22.5609 33.55ZM7.86 36.71H8.475V38.105C8.295 38.2483 8.085 38.3583 7.845 38.435C7.605 38.5117 7.35833 38.55 7.105 38.55C6.74833 38.55 6.42667 38.4733 6.14 38.32C5.85333 38.1633 5.62833 37.9483 5.465 37.675C5.30167 37.4017 5.22 37.0933 5.22 36.75C5.22 36.4067 5.30167 36.0983 5.465 35.825C5.62833 35.5517 5.85333 35.3383 6.14 35.185C6.43 35.0283 6.755 34.95 7.115 34.95C7.40833 34.95 7.675 34.9983 7.915 35.095C8.155 35.1917 8.35667 35.3333 8.52 35.52L8.11 35.92C7.84333 35.6533 7.52167 35.52 7.145 35.52C6.89833 35.52 6.67833 35.5717 6.485 35.675C6.295 35.7783 6.145 35.9233 6.035 36.11C5.92833 36.2967 5.875 36.51 5.875 36.75C5.875 36.9833 5.92833 37.1933 6.035 37.38C6.145 37.5667 6.295 37.7133 6.485 37.82C6.67833 37.9267 6.89667 37.98 7.14 37.98C7.41333 37.98 7.65333 37.92 7.86 37.8V36.71ZM11.6023 37.69H9.8523L9.5073 38.5H8.8373L10.4123 35H11.0523L12.6323 38.5H11.9523L11.6023 37.69ZM11.3873 37.18L10.7273 35.65L10.0723 37.18H11.3873ZM16.2924 38.5L16.2874 36.18L15.1374 38.1H14.8474L13.6974 36.21V38.5H13.0774V35H13.6124L15.0024 37.32L16.3674 35H16.9024L16.9074 38.5H16.2924ZM20.4778 37.955V38.5H17.8528V35H20.4078V35.545H18.5028V36.455H20.1928V36.99H18.5028V37.955H20.4778Z" fill="white"/>
<path d="M10.2925 48.634C12.0685 48.634 13.3765 48.988 14.2165 49.696C15.0685 50.404 15.4945 51.352 15.4945 52.54C15.4945 53.308 15.3025 54.01 14.9185 54.646C14.5345 55.27 13.9465 55.774 13.1545 56.158C12.3745 56.53 11.4085 56.716 10.2565 56.716C9.36851 56.716 8.49251 56.602 7.62851 56.374C6.77651 56.134 6.05051 55.798 5.45051 55.366L6.60251 53.134C7.08251 53.494 7.63451 53.776 8.25851 53.98C8.88251 54.172 9.52451 54.268 10.1845 54.268C10.9165 54.268 11.4925 54.124 11.9125 53.836C12.3325 53.548 12.5425 53.146 12.5425 52.63C12.5425 52.09 12.3205 51.682 11.8765 51.406C11.4445 51.13 10.6885 50.992 9.60851 50.992H6.38651L7.03451 43.9H14.7205V46.24H9.46451L9.26651 48.634H10.2925ZM21.3216 41.344H23.8236L17.8836 58.3H15.3816L21.3216 41.344ZM28.0464 48.634C29.8224 48.634 31.1304 48.988 31.9704 49.696C32.8224 50.404 33.2484 51.352 33.2484 52.54C33.2484 53.308 33.0564 54.01 32.6724 54.646C32.2884 55.27 31.7004 55.774 30.9084 56.158C30.1284 56.53 29.1624 56.716 28.0104 56.716C27.1224 56.716 26.2464 56.602 25.3824 56.374C24.5304 56.134 23.8044 55.798 23.2044 55.366L24.3564 53.134C24.8364 53.494 25.3884 53.776 26.0124 53.98C26.6364 54.172 27.2784 54.268 27.9384 54.268C28.6704 54.268 29.2464 54.124 29.6664 53.836C30.0864 53.548 30.2964 53.146 30.2964 52.63C30.2964 52.09 30.0744 51.682 29.6304 51.406C29.1984 51.13 28.4424 50.992 27.3624 50.992H24.1404L24.7884 43.9H32.4744V46.24H27.2184L27.0204 48.634H28.0464Z" fill="white"/>
<path d="M283 68H325C327.761 68 330 70.2386 330 73V103C330 105.761 327.761 108 325 108H283L274 88.5L283 68Z" fill="url(#paint1_linear_83_7763)"/>
<path d="M306.227 92.668C305.415 92.668 304.692 92.4673 304.057 92.066C303.423 91.6647 302.923 91.086 302.559 90.33C302.205 89.5647 302.027 88.6547 302.027 87.6C302.027 86.5453 302.205 85.64 302.559 84.884C302.923 84.1187 303.423 83.5353 304.057 83.134C304.692 82.7327 305.415 82.532 306.227 82.532C307.039 82.532 307.763 82.7327 308.397 83.134C309.032 83.5353 309.527 84.1187 309.881 84.884C310.245 85.64 310.427 86.5453 310.427 87.6C310.427 88.6547 310.245 89.5647 309.881 90.33C309.527 91.086 309.032 91.6647 308.397 92.066C307.763 92.4673 307.039 92.668 306.227 92.668ZM306.227 90.75C306.825 90.75 307.291 90.4933 307.627 89.98C307.973 89.4667 308.145 88.6733 308.145 87.6C308.145 86.5267 307.973 85.7333 307.627 85.22C307.291 84.7067 306.825 84.45 306.227 84.45C305.639 84.45 305.173 84.7067 304.827 85.22C304.491 85.7333 304.323 86.5267 304.323 87.6C304.323 88.6733 304.491 89.4667 304.827 89.98C305.173 90.4933 305.639 90.75 306.227 90.75ZM314.868 80.712H316.814L312.194 93.9H310.248L314.868 80.712ZM320.098 86.382C321.48 86.382 322.497 86.6573 323.15 87.208C323.813 87.7587 324.144 88.496 324.144 89.42C324.144 90.0173 323.995 90.5633 323.696 91.058C323.398 91.5433 322.94 91.9353 322.324 92.234C321.718 92.5233 320.966 92.668 320.07 92.668C319.38 92.668 318.698 92.5793 318.026 92.402C317.364 92.2153 316.799 91.954 316.332 91.618L317.228 89.882C317.602 90.162 318.031 90.3813 318.516 90.54C319.002 90.6893 319.501 90.764 320.014 90.764C320.584 90.764 321.032 90.652 321.358 90.428C321.685 90.204 321.848 89.8913 321.848 89.49C321.848 89.07 321.676 88.7527 321.33 88.538C320.994 88.3233 320.406 88.216 319.566 88.216H317.06L317.564 82.7H323.542V84.52H319.454L319.3 86.382H320.098Z" fill="white"/>
<path d="M47 85H5C2.23857 85 0 87.2386 0 90V120C0 122.761 2.23857 125 5 125H47L56 105.5L47 85Z" fill="url(#paint2_linear_83_7763)"/>
<path d="M7.95 94.68C8.14333 94.7433 8.29667 94.85 8.41 95C8.52333 95.1467 8.58 95.33 8.58 95.55C8.58 95.8533 8.46333 96.0883 8.23 96.255C7.99667 96.4183 7.65667 96.5 7.21 96.5H5.47V93H7.11C7.52333 93 7.84167 93.0817 8.065 93.245C8.28833 93.405 8.4 93.6267 8.4 93.91C8.4 94.0833 8.36 94.2367 8.28 94.37C8.2 94.5033 8.09 94.6067 7.95 94.68ZM6.12 93.51V94.475H7.04C7.26667 94.475 7.44 94.435 7.56 94.355C7.68333 94.2717 7.745 94.1517 7.745 93.995C7.745 93.835 7.68333 93.715 7.56 93.635C7.44 93.5517 7.26667 93.51 7.04 93.51H6.12ZM7.17 95.99C7.67333 95.99 7.925 95.8217 7.925 95.485C7.925 95.1483 7.67333 94.98 7.17 94.98H6.12V95.99H7.17ZM10.9087 96.55C10.552 96.55 10.2304 96.4733 9.94371 96.32C9.65704 96.1633 9.43204 95.9483 9.26871 95.675C9.10538 95.3983 9.02371 95.09 9.02371 94.75C9.02371 94.41 9.10538 94.1033 9.26871 93.83C9.43204 93.5533 9.65704 93.3383 9.94371 93.185C10.2304 93.0283 10.552 92.95 10.9087 92.95C11.2654 92.95 11.587 93.0283 11.8737 93.185C12.1604 93.3383 12.3854 93.5517 12.5487 93.825C12.712 94.0983 12.7937 94.4067 12.7937 94.75C12.7937 95.0933 12.712 95.4017 12.5487 95.675C12.3854 95.9483 12.1604 96.1633 11.8737 96.32C11.587 96.4733 11.2654 96.55 10.9087 96.55ZM10.9087 95.98C11.142 95.98 11.352 95.9283 11.5387 95.825C11.7254 95.7183 11.872 95.5717 11.9787 95.385C12.0854 95.195 12.1387 94.9833 12.1387 94.75C12.1387 94.5167 12.0854 94.3067 11.9787 94.12C11.872 93.93 11.7254 93.7833 11.5387 93.68C11.352 93.5733 11.142 93.52 10.9087 93.52C10.6754 93.52 10.4654 93.5733 10.2787 93.68C10.092 93.7833 9.94538 93.93 9.83871 94.12C9.73204 94.3067 9.67871 94.5167 9.67871 94.75C9.67871 94.9833 9.73204 95.195 9.83871 95.385C9.94538 95.5717 10.092 95.7183 10.2787 95.825C10.4654 95.9283 10.6754 95.98 10.9087 95.98ZM16.5927 93V96.5H16.0577L14.1277 94.13V96.5H13.4827V93H14.0177L15.9477 95.37V93H16.5927ZM19.0355 96.55C18.5522 96.55 18.1755 96.415 17.9055 96.145C17.6355 95.8717 17.5005 95.4817 17.5005 94.975V93H18.1505V94.95C18.1505 95.6367 18.4472 95.98 19.0405 95.98C19.6305 95.98 19.9255 95.6367 19.9255 94.95V93H20.5655V94.975C20.5655 95.4817 20.4305 95.8717 20.1605 96.145C19.8939 96.415 19.5189 96.55 19.0355 96.55ZM22.5609 96.55C22.2909 96.55 22.0292 96.5117 21.7759 96.435C21.5259 96.3583 21.3275 96.2567 21.1809 96.13L21.4059 95.625C21.5492 95.7383 21.7242 95.8317 21.9309 95.905C22.1409 95.975 22.3509 96.01 22.5609 96.01C22.8209 96.01 23.0142 95.9683 23.1409 95.885C23.2709 95.8017 23.3359 95.6917 23.3359 95.555C23.3359 95.455 23.2992 95.3733 23.2259 95.31C23.1559 95.2433 23.0659 95.1917 22.9559 95.155C22.8459 95.1183 22.6959 95.0767 22.5059 95.03C22.2392 94.9667 22.0225 94.9033 21.8559 94.84C21.6925 94.7767 21.5509 94.6783 21.4309 94.545C21.3142 94.4083 21.2559 94.225 21.2559 93.995C21.2559 93.8017 21.3075 93.6267 21.4109 93.47C21.5175 93.31 21.6759 93.1833 21.8859 93.09C22.0992 92.9967 22.3592 92.95 22.6659 92.95C22.8792 92.95 23.0892 92.9767 23.2959 93.03C23.5025 93.0833 23.6809 93.16 23.8309 93.26L23.6259 93.765C23.4725 93.675 23.3125 93.6067 23.1459 93.56C22.9792 93.5133 22.8175 93.49 22.6609 93.49C22.4042 93.49 22.2125 93.5333 22.0859 93.62C21.9625 93.7067 21.9009 93.8217 21.9009 93.965C21.9009 94.065 21.9359 94.1467 22.0059 94.21C22.0792 94.2733 22.1709 94.3233 22.2809 94.36C22.3909 94.3967 22.5409 94.4383 22.7309 94.485C22.9909 94.545 23.2042 94.6083 23.3709 94.675C23.5375 94.7383 23.6792 94.8367 23.7959 94.97C23.9159 95.1033 23.9759 95.2833 23.9759 95.51C23.9759 95.7033 23.9225 95.8783 23.8159 96.035C23.7125 96.1917 23.5542 96.3167 23.3409 96.41C23.1275 96.5033 22.8675 96.55 22.5609 96.55ZM7.86 99.71H8.475V101.105C8.295 101.248 8.085 101.358 7.845 101.435C7.605 101.512 7.35833 101.55 7.105 101.55C6.74833 101.55 6.42667 101.473 6.14 101.32C5.85333 101.163 5.62833 100.948 5.465 100.675C5.30167 100.402 5.22 100.093 5.22 99.75C5.22 99.4067 5.30167 99.0983 5.465 98.825C5.62833 98.5517 5.85333 98.3383 6.14 98.185C6.43 98.0283 6.755 97.95 7.115 97.95C7.40833 97.95 7.675 97.9983 7.915 98.095C8.155 98.1917 8.35667 98.3333 8.52 98.52L8.11 98.92C7.84333 98.6533 7.52167 98.52 7.145 98.52C6.89833 98.52 6.67833 98.5717 6.485 98.675C6.295 98.7783 6.145 98.9233 6.035 99.11C5.92833 99.2967 5.875 99.51 5.875 99.75C5.875 99.9833 5.92833 100.193 6.035 100.38C6.145 100.567 6.295 100.713 6.485 100.82C6.67833 100.927 6.89667 100.98 7.14 100.98C7.41333 100.98 7.65333 100.92 7.86 100.8V99.71ZM11.6023 100.69H9.8523L9.5073 101.5H8.8373L10.4123 98H11.0523L12.6323 101.5H11.9523L11.6023 100.69ZM11.3873 100.18L10.7273 98.65L10.0723 100.18H11.3873ZM16.2924 101.5L16.2874 99.18L15.1374 101.1H14.8474L13.6974 99.21V101.5H13.0774V98H13.6124L15.0024 100.32L16.3674 98H16.9024L16.9074 101.5H16.2924ZM20.4778 100.955V101.5H17.8528V98H20.4078V98.545H18.5028V99.455H20.1928V99.99H18.5028V100.955H20.4778Z" fill="white"/>
<path d="M9.746 116.668C8.934 116.668 8.21067 116.467 7.576 116.066C6.94133 115.665 6.442 115.086 6.078 114.33C5.72333 113.565 5.546 112.655 5.546 111.6C5.546 110.545 5.72333 109.64 6.078 108.884C6.442 108.119 6.94133 107.535 7.576 107.134C8.21067 106.733 8.934 106.532 9.746 106.532C10.558 106.532 11.2813 106.733 11.916 107.134C12.5507 107.535 13.0453 108.119 13.4 108.884C13.764 109.64 13.946 110.545 13.946 111.6C13.946 112.655 13.764 113.565 13.4 114.33C13.0453 115.086 12.5507 115.665 11.916 116.066C11.2813 116.467 10.558 116.668 9.746 116.668ZM9.746 114.75C10.3433 114.75 10.81 114.493 11.146 113.98C11.4913 113.467 11.664 112.673 11.664 111.6C11.664 110.527 11.4913 109.733 11.146 109.22C10.81 108.707 10.3433 108.45 9.746 108.45C9.158 108.45 8.69133 108.707 8.346 109.22C8.01 109.733 7.842 110.527 7.842 111.6C7.842 112.673 8.01 113.467 8.346 113.98C8.69133 114.493 9.158 114.75 9.746 114.75ZM18.3865 104.712H20.3325L15.7125 117.9H13.7665L18.3865 104.712ZM23.6169 110.382C24.9983 110.382 26.0156 110.657 26.6689 111.208C27.3316 111.759 27.6629 112.496 27.6629 113.42C27.6629 114.017 27.5136 114.563 27.2149 115.058C26.9163 115.543 26.4589 115.935 25.8429 116.234C25.2363 116.523 24.4849 116.668 23.5889 116.668C22.8983 116.668 22.2169 116.579 21.5449 116.402C20.8823 116.215 20.3176 115.954 19.8509 115.618L20.7469 113.882C21.1203 114.162 21.5496 114.381 22.0349 114.54C22.5203 114.689 23.0196 114.764 23.5329 114.764C24.1023 114.764 24.5503 114.652 24.8769 114.428C25.2036 114.204 25.3669 113.891 25.3669 113.49C25.3669 113.07 25.1943 112.753 24.8489 112.538C24.5129 112.323 23.9249 112.216 23.0849 112.216H20.5789L21.0829 106.7H27.0609V108.52H22.9729L22.8189 110.382H23.6169Z" fill="white"/>
<path d="M292.5 114H325C327.761 114 330 116.239 330 119V145C330 147.761 327.761 150 325 150H290.5L283.5 134.5L292.5 114Z" fill="url(#paint3_linear_83_7763)"/>
<path d="M311.662 136.12C311.082 136.12 310.566 135.977 310.112 135.69C309.659 135.403 309.302 134.99 309.042 134.45C308.789 133.903 308.662 133.253 308.662 132.5C308.662 131.747 308.789 131.1 309.042 130.56C309.302 130.013 309.659 129.597 310.112 129.31C310.566 129.023 311.082 128.88 311.662 128.88C312.242 128.88 312.759 129.023 313.212 129.31C313.666 129.597 314.019 130.013 314.272 130.56C314.532 131.1 314.662 131.747 314.662 132.5C314.662 133.253 314.532 133.903 314.272 134.45C314.019 134.99 313.666 135.403 313.212 135.69C312.759 135.977 312.242 136.12 311.662 136.12ZM311.662 134.75C312.089 134.75 312.422 134.567 312.662 134.2C312.909 133.833 313.032 133.267 313.032 132.5C313.032 131.733 312.909 131.167 312.662 130.8C312.422 130.433 312.089 130.25 311.662 130.25C311.242 130.25 310.909 130.433 310.662 130.8C310.422 131.167 310.302 131.733 310.302 132.5C310.302 133.267 310.422 133.833 310.662 134.2C310.909 134.567 311.242 134.75 311.662 134.75ZM317.834 127.58H319.224L315.924 137H314.534L317.834 127.58ZM321.57 131.63C322.557 131.63 323.284 131.827 323.75 132.22C324.224 132.613 324.46 133.14 324.46 133.8C324.46 134.227 324.354 134.617 324.14 134.97C323.927 135.317 323.6 135.597 323.16 135.81C322.727 136.017 322.19 136.12 321.55 136.12C321.057 136.12 320.57 136.057 320.09 135.93C319.617 135.797 319.214 135.61 318.88 135.37L319.52 134.13C319.787 134.33 320.094 134.487 320.44 134.6C320.787 134.707 321.144 134.76 321.51 134.76C321.917 134.76 322.237 134.68 322.47 134.52C322.704 134.36 322.82 134.137 322.82 133.85C322.82 133.55 322.697 133.323 322.45 133.17C322.21 133.017 321.79 132.94 321.19 132.94H319.4L319.76 129H324.03V130.3H321.11L321 131.63H321.57Z" fill="white"/>
<path d="M38 147H5.5C2.73857 147 0.5 149.239 0.5 152V178C0.5 180.761 2.73857 183 5.5 183H40L47 167.5L38 147Z" fill="url(#paint4_linear_83_7763)"/>
<path d="M7.36 157.044C7.51467 157.095 7.63733 157.18 7.728 157.3C7.81867 157.417 7.864 157.564 7.864 157.74C7.864 157.983 7.77067 158.171 7.584 158.304C7.39733 158.435 7.12533 158.5 6.768 158.5H5.376V155.7H6.688C7.01867 155.7 7.27333 155.765 7.452 155.896C7.63067 156.024 7.72 156.201 7.72 156.428C7.72 156.567 7.688 156.689 7.624 156.796C7.56 156.903 7.472 156.985 7.36 157.044ZM5.896 156.108V156.88H6.632C6.81333 156.88 6.952 156.848 7.048 156.784C7.14667 156.717 7.196 156.621 7.196 156.496C7.196 156.368 7.14667 156.272 7.048 156.208C6.952 156.141 6.81333 156.108 6.632 156.108H5.896ZM6.736 158.092C7.13867 158.092 7.34 157.957 7.34 157.688C7.34 157.419 7.13867 157.284 6.736 157.284H5.896V158.092H6.736ZM9.72697 158.54C9.44164 158.54 9.1843 158.479 8.95497 158.356C8.72564 158.231 8.54564 158.059 8.41497 157.84C8.2843 157.619 8.21897 157.372 8.21897 157.1C8.21897 156.828 8.2843 156.583 8.41497 156.364C8.54564 156.143 8.72564 155.971 8.95497 155.848C9.1843 155.723 9.44164 155.66 9.72697 155.66C10.0123 155.66 10.2696 155.723 10.499 155.848C10.7283 155.971 10.9083 156.141 11.039 156.36C11.1696 156.579 11.235 156.825 11.235 157.1C11.235 157.375 11.1696 157.621 11.039 157.84C10.9083 158.059 10.7283 158.231 10.499 158.356C10.2696 158.479 10.0123 158.54 9.72697 158.54ZM9.72697 158.084C9.91364 158.084 10.0816 158.043 10.231 157.96C10.3803 157.875 10.4976 157.757 10.583 157.608C10.6683 157.456 10.711 157.287 10.711 157.1C10.711 156.913 10.6683 156.745 10.583 156.596C10.4976 156.444 10.3803 156.327 10.231 156.244C10.0816 156.159 9.91364 156.116 9.72697 156.116C9.5403 156.116 9.3723 156.159 9.22297 156.244C9.07364 156.327 8.9563 156.444 8.87097 156.596C8.78564 156.745 8.74297 156.913 8.74297 157.1C8.74297 157.287 8.78564 157.456 8.87097 157.608C8.9563 157.757 9.07364 157.875 9.22297 157.96C9.3723 158.043 9.5403 158.084 9.72697 158.084ZM14.2742 155.7V158.5H13.8462L12.3022 156.604V158.5H11.7862V155.7H12.2142L13.7582 157.596V155.7H14.2742ZM16.2284 158.54C15.8418 158.54 15.5404 158.432 15.3244 158.216C15.1084 157.997 15.0004 157.685 15.0004 157.28V155.7H15.5204V157.26C15.5204 157.809 15.7578 158.084 16.2324 158.084C16.7044 158.084 16.9404 157.809 16.9404 157.26V155.7H17.4524V157.28C17.4524 157.685 17.3444 157.997 17.1284 158.216C16.9151 158.432 16.6151 158.54 16.2284 158.54ZM19.0487 158.54C18.8327 158.54 18.6234 158.509 18.4207 158.448C18.2207 158.387 18.062 158.305 17.9447 158.204L18.1247 157.8C18.2394 157.891 18.3794 157.965 18.5447 158.024C18.7127 158.08 18.8807 158.108 19.0487 158.108C19.2567 158.108 19.4114 158.075 19.5127 158.008C19.6167 157.941 19.6687 157.853 19.6687 157.744C19.6687 157.664 19.6394 157.599 19.5807 157.548C19.5247 157.495 19.4527 157.453 19.3647 157.424C19.2767 157.395 19.1567 157.361 19.0047 157.324C18.7914 157.273 18.618 157.223 18.4847 157.172C18.354 157.121 18.2407 157.043 18.1447 156.936C18.0514 156.827 18.0047 156.68 18.0047 156.496C18.0047 156.341 18.046 156.201 18.1287 156.076C18.214 155.948 18.3407 155.847 18.5087 155.772C18.6794 155.697 18.8874 155.66 19.1327 155.66C19.3034 155.66 19.4714 155.681 19.6367 155.724C19.802 155.767 19.9447 155.828 20.0647 155.908L19.9007 156.312C19.778 156.24 19.65 156.185 19.5167 156.148C19.3834 156.111 19.254 156.092 19.1287 156.092C18.9234 156.092 18.77 156.127 18.6687 156.196C18.57 156.265 18.5207 156.357 18.5207 156.472C18.5207 156.552 18.5487 156.617 18.6047 156.668C18.6634 156.719 18.7367 156.759 18.8247 156.788C18.9127 156.817 19.0327 156.851 19.1847 156.888C19.3927 156.936 19.5634 156.987 19.6967 157.04C19.83 157.091 19.9434 157.169 20.0367 157.276C20.1327 157.383 20.1807 157.527 20.1807 157.708C20.1807 157.863 20.138 158.003 20.0527 158.128C19.97 158.253 19.8434 158.353 19.6727 158.428C19.502 158.503 19.294 158.54 19.0487 158.54ZM7.288 161.068H7.78V162.184C7.636 162.299 7.468 162.387 7.276 162.448C7.084 162.509 6.88667 162.54 6.684 162.54C6.39867 162.54 6.14133 162.479 5.912 162.356C5.68267 162.231 5.50267 162.059 5.372 161.84C5.24133 161.621 5.176 161.375 5.176 161.1C5.176 160.825 5.24133 160.579 5.372 160.36C5.50267 160.141 5.68267 159.971 5.912 159.848C6.144 159.723 6.404 159.66 6.692 159.66C6.92667 159.66 7.14 159.699 7.332 159.776C7.524 159.853 7.68533 159.967 7.816 160.116L7.488 160.436C7.27467 160.223 7.01733 160.116 6.716 160.116C6.51867 160.116 6.34267 160.157 6.188 160.24C6.036 160.323 5.916 160.439 5.828 160.588C5.74267 160.737 5.7 160.908 5.7 161.1C5.7 161.287 5.74267 161.455 5.828 161.604C5.916 161.753 6.036 161.871 6.188 161.956C6.34267 162.041 6.51733 162.084 6.712 162.084C6.93067 162.084 7.12267 162.036 7.288 161.94V161.068ZM10.2818 161.852H8.88184L8.60584 162.5H8.06984L9.32984 159.7H9.84184L11.1058 162.5H10.5618L10.2818 161.852ZM10.1098 161.444L9.58184 160.22L9.05784 161.444H10.1098ZM14.0339 162.5L14.0299 160.644L13.1099 162.18H12.8779L11.9579 160.668V162.5H11.4619V159.7H11.8899L13.0019 161.556L14.0939 159.7H14.5219L14.5259 162.5H14.0339ZM17.3823 162.064V162.5H15.2823V159.7H17.3263V160.136H15.8023V160.864H17.1543V161.292H15.8023V162.064H17.3823Z" fill="white"/>
<path d="M8.66246 174.62C8.08246 174.62 7.56579 174.477 7.11246 174.19C6.65913 173.903 6.30246 173.49 6.04246 172.95C5.78913 172.403 5.66246 171.753 5.66246 171C5.66246 170.247 5.78913 169.6 6.04246 169.06C6.30246 168.513 6.65913 168.097 7.11246 167.81C7.56579 167.523 8.08246 167.38 8.66246 167.38C9.24246 167.38 9.75913 167.523 10.2125 167.81C10.6658 168.097 11.0191 168.513 11.2725 169.06C11.5325 169.6 11.6625 170.247 11.6625 171C11.6625 171.753 11.5325 172.403 11.2725 172.95C11.0191 173.49 10.6658 173.903 10.2125 174.19C9.75913 174.477 9.24246 174.62 8.66246 174.62ZM8.66246 173.25C9.08913 173.25 9.42246 173.067 9.66246 172.7C9.90913 172.333 10.0325 171.767 10.0325 171C10.0325 170.233 9.90913 169.667 9.66246 169.3C9.42246 168.933 9.08913 168.75 8.66246 168.75C8.24246 168.75 7.90913 168.933 7.66246 169.3C7.42246 169.667 7.30246 170.233 7.30246 171C7.30246 171.767 7.42246 172.333 7.66246 172.7C7.90913 173.067 8.24246 173.25 8.66246 173.25ZM14.8343 166.08H16.2243L12.9243 175.5H11.5343L14.8343 166.08ZM18.5703 170.13C19.5569 170.13 20.2836 170.327 20.7503 170.72C21.2236 171.113 21.4603 171.64 21.4603 172.3C21.4603 172.727 21.3536 173.117 21.1403 173.47C20.9269 173.817 20.6003 174.097 20.1603 174.31C19.7269 174.517 19.1903 174.62 18.5503 174.62C18.0569 174.62 17.5703 174.557 17.0903 174.43C16.6169 174.297 16.2136 174.11 15.8803 173.87L16.5203 172.63C16.7869 172.83 17.0936 172.987 17.4403 173.1C17.7869 173.207 18.1436 173.26 18.5103 173.26C18.9169 173.26 19.2369 173.18 19.4703 173.02C19.7036 172.86 19.8203 172.637 19.8203 172.35C19.8203 172.05 19.6969 171.823 19.4503 171.67C19.2103 171.517 18.7903 171.44 18.1903 171.44H16.4003L16.7603 167.5H21.0303V168.8H18.1103L18.0003 170.13H18.5703Z" fill="white"/>
<path d="M301.5 156H325C327.761 156 330 158.239 330 161V183C330 185.761 327.761 188 325 188H297L292 177.333L301.5 156Z" fill="url(#paint5_linear_83_7763)"/>
<path d="M311.662 176.12C311.082 176.12 310.566 175.977 310.112 175.69C309.659 175.403 309.302 174.99 309.042 174.45C308.789 173.903 308.662 173.253 308.662 172.5C308.662 171.747 308.789 171.1 309.042 170.56C309.302 170.013 309.659 169.597 310.112 169.31C310.566 169.023 311.082 168.88 311.662 168.88C312.242 168.88 312.759 169.023 313.212 169.31C313.666 169.597 314.019 170.013 314.272 170.56C314.532 171.1 314.662 171.747 314.662 172.5C314.662 173.253 314.532 173.903 314.272 174.45C314.019 174.99 313.666 175.403 313.212 175.69C312.759 175.977 312.242 176.12 311.662 176.12ZM311.662 174.75C312.089 174.75 312.422 174.567 312.662 174.2C312.909 173.833 313.032 173.267 313.032 172.5C313.032 171.733 312.909 171.167 312.662 170.8C312.422 170.433 312.089 170.25 311.662 170.25C311.242 170.25 310.909 170.433 310.662 170.8C310.422 171.167 310.302 171.733 310.302 172.5C310.302 173.267 310.422 173.833 310.662 174.2C310.909 174.567 311.242 174.75 311.662 174.75ZM317.834 167.58H319.224L315.924 177H314.534L317.834 167.58ZM321.57 171.63C322.557 171.63 323.284 171.827 323.75 172.22C324.224 172.613 324.46 173.14 324.46 173.8C324.46 174.227 324.354 174.617 324.14 174.97C323.927 175.317 323.6 175.597 323.16 175.81C322.727 176.017 322.19 176.12 321.55 176.12C321.057 176.12 320.57 176.057 320.09 175.93C319.617 175.797 319.214 175.61 318.88 175.37L319.52 174.13C319.787 174.33 320.094 174.487 320.44 174.6C320.787 174.707 321.144 174.76 321.51 174.76C321.917 174.76 322.237 174.68 322.47 174.52C322.704 174.36 322.82 174.137 322.82 173.85C322.82 173.55 322.697 173.323 322.45 173.17C322.21 173.017 321.79 172.94 321.19 172.94H319.4L319.76 169H324.03V170.3H321.11L321 171.63H321.57Z" fill="white"/>
<path d="M28.5 210H5C2.23857 210 0 212.239 0 215V237C0 239.761 2.23857 242 5 242H33L38 231.333L28.5 210Z" fill="url(#paint6_linear_83_7763)"/>
<path d="M7.36 218.544C7.51467 218.595 7.63733 218.68 7.728 218.8C7.81867 218.917 7.864 219.064 7.864 219.24C7.864 219.483 7.77067 219.671 7.584 219.804C7.39733 219.935 7.12533 220 6.768 220H5.376V217.2H6.688C7.01867 217.2 7.27333 217.265 7.452 217.396C7.63067 217.524 7.72 217.701 7.72 217.928C7.72 218.067 7.688 218.189 7.624 218.296C7.56 218.403 7.472 218.485 7.36 218.544ZM5.896 217.608V218.38H6.632C6.81333 218.38 6.952 218.348 7.048 218.284C7.14667 218.217 7.196 218.121 7.196 217.996C7.196 217.868 7.14667 217.772 7.048 217.708C6.952 217.641 6.81333 217.608 6.632 217.608H5.896ZM6.736 219.592C7.13867 219.592 7.34 219.457 7.34 219.188C7.34 218.919 7.13867 218.784 6.736 218.784H5.896V219.592H6.736ZM9.72697 220.04C9.44164 220.04 9.1843 219.979 8.95497 219.856C8.72564 219.731 8.54564 219.559 8.41497 219.34C8.2843 219.119 8.21897 218.872 8.21897 218.6C8.21897 218.328 8.2843 218.083 8.41497 217.864C8.54564 217.643 8.72564 217.471 8.95497 217.348C9.1843 217.223 9.44164 217.16 9.72697 217.16C10.0123 217.16 10.2696 217.223 10.499 217.348C10.7283 217.471 10.9083 217.641 11.039 217.86C11.1696 218.079 11.235 218.325 11.235 218.6C11.235 218.875 11.1696 219.121 11.039 219.34C10.9083 219.559 10.7283 219.731 10.499 219.856C10.2696 219.979 10.0123 220.04 9.72697 220.04ZM9.72697 219.584C9.91364 219.584 10.0816 219.543 10.231 219.46C10.3803 219.375 10.4976 219.257 10.583 219.108C10.6683 218.956 10.711 218.787 10.711 218.6C10.711 218.413 10.6683 218.245 10.583 218.096C10.4976 217.944 10.3803 217.827 10.231 217.744C10.0816 217.659 9.91364 217.616 9.72697 217.616C9.5403 217.616 9.3723 217.659 9.22297 217.744C9.07364 217.827 8.9563 217.944 8.87097 218.096C8.78564 218.245 8.74297 218.413 8.74297 218.6C8.74297 218.787 8.78564 218.956 8.87097 219.108C8.9563 219.257 9.07364 219.375 9.22297 219.46C9.3723 219.543 9.5403 219.584 9.72697 219.584ZM14.2742 217.2V220H13.8462L12.3022 218.104V220H11.7862V217.2H12.2142L13.7582 219.096V217.2H14.2742ZM16.2284 220.04C15.8418 220.04 15.5404 219.932 15.3244 219.716C15.1084 219.497 15.0004 219.185 15.0004 218.78V217.2H15.5204V218.76C15.5204 219.309 15.7578 219.584 16.2324 219.584C16.7044 219.584 16.9404 219.309 16.9404 218.76V217.2H17.4524V218.78C17.4524 219.185 17.3444 219.497 17.1284 219.716C16.9151 219.932 16.6151 220.04 16.2284 220.04ZM19.0487 220.04C18.8327 220.04 18.6234 220.009 18.4207 219.948C18.2207 219.887 18.062 219.805 17.9447 219.704L18.1247 219.3C18.2394 219.391 18.3794 219.465 18.5447 219.524C18.7127 219.58 18.8807 219.608 19.0487 219.608C19.2567 219.608 19.4114 219.575 19.5127 219.508C19.6167 219.441 19.6687 219.353 19.6687 219.244C19.6687 219.164 19.6394 219.099 19.5807 219.048C19.5247 218.995 19.4527 218.953 19.3647 218.924C19.2767 218.895 19.1567 218.861 19.0047 218.824C18.7914 218.773 18.618 218.723 18.4847 218.672C18.354 218.621 18.2407 218.543 18.1447 218.436C18.0514 218.327 18.0047 218.18 18.0047 217.996C18.0047 217.841 18.046 217.701 18.1287 217.576C18.214 217.448 18.3407 217.347 18.5087 217.272C18.6794 217.197 18.8874 217.16 19.1327 217.16C19.3034 217.16 19.4714 217.181 19.6367 217.224C19.802 217.267 19.9447 217.328 20.0647 217.408L19.9007 217.812C19.778 217.74 19.65 217.685 19.5167 217.648C19.3834 217.611 19.254 217.592 19.1287 217.592C18.9234 217.592 18.77 217.627 18.6687 217.696C18.57 217.765 18.5207 217.857 18.5207 217.972C18.5207 218.052 18.5487 218.117 18.6047 218.168C18.6634 218.219 18.7367 218.259 18.8247 218.288C18.9127 218.317 19.0327 218.351 19.1847 218.388C19.3927 218.436 19.5634 218.487 19.6967 218.54C19.83 218.591 19.9434 218.669 20.0367 218.776C20.1327 218.883 20.1807 219.027 20.1807 219.208C20.1807 219.363 20.138 219.503 20.0527 219.628C19.97 219.753 19.8434 219.853 19.6727 219.928C19.502 220.003 19.294 220.04 19.0487 220.04ZM7.288 222.568H7.78V223.684C7.636 223.799 7.468 223.887 7.276 223.948C7.084 224.009 6.88667 224.04 6.684 224.04C6.39867 224.04 6.14133 223.979 5.912 223.856C5.68267 223.731 5.50267 223.559 5.372 223.34C5.24133 223.121 5.176 222.875 5.176 222.6C5.176 222.325 5.24133 222.079 5.372 221.86C5.50267 221.641 5.68267 221.471 5.912 221.348C6.144 221.223 6.404 221.16 6.692 221.16C6.92667 221.16 7.14 221.199 7.332 221.276C7.524 221.353 7.68533 221.467 7.816 221.616L7.488 221.936C7.27467 221.723 7.01733 221.616 6.716 221.616C6.51867 221.616 6.34267 221.657 6.188 221.74C6.036 221.823 5.916 221.939 5.828 222.088C5.74267 222.237 5.7 222.408 5.7 222.6C5.7 222.787 5.74267 222.955 5.828 223.104C5.916 223.253 6.036 223.371 6.188 223.456C6.34267 223.541 6.51733 223.584 6.712 223.584C6.93067 223.584 7.12267 223.536 7.288 223.44V222.568ZM10.2818 223.352H8.88184L8.60584 224H8.06984L9.32984 221.2H9.84184L11.1058 224H10.5618L10.2818 223.352ZM10.1098 222.944L9.58184 221.72L9.05784 222.944H10.1098ZM14.0339 224L14.0299 222.144L13.1099 223.68H12.8779L11.9579 222.168V224H11.4619V221.2H11.8899L13.0019 223.056L14.0939 221.2H14.5219L14.5259 224H14.0339ZM17.3823 223.564V224H15.2823V221.2H17.3263V221.636H15.8023V222.364H17.1543V222.792H15.8023V223.564H17.3823Z" fill="white"/>
<path d="M8.39 236.12C7.81 236.12 7.29333 235.977 6.84 235.69C6.38667 235.403 6.03 234.99 5.77 234.45C5.51667 233.903 5.39 233.253 5.39 232.5C5.39 231.747 5.51667 231.1 5.77 230.56C6.03 230.013 6.38667 229.597 6.84 229.31C7.29333 229.023 7.81 228.88 8.39 228.88C8.97 228.88 9.48667 229.023 9.94 229.31C10.3933 229.597 10.7467 230.013 11 230.56C11.26 231.1 11.39 231.747 11.39 232.5C11.39 233.253 11.26 233.903 11 234.45C10.7467 234.99 10.3933 235.403 9.94 235.69C9.48667 235.977 8.97 236.12 8.39 236.12ZM8.39 234.75C8.81667 234.75 9.15 234.567 9.39 234.2C9.63667 233.833 9.76 233.267 9.76 232.5C9.76 231.733 9.63667 231.167 9.39 230.8C9.15 230.433 8.81667 230.25 8.39 230.25C7.97 230.25 7.63667 230.433 7.39 230.8C7.15 231.167 7.03 231.733 7.03 232.5C7.03 233.267 7.15 233.833 7.39 234.2C7.63667 234.567 7.97 234.75 8.39 234.75ZM14.5618 227.58H15.9518L12.6518 237H11.2618L14.5618 227.58ZM18.2978 231.63C19.2845 231.63 20.0111 231.827 20.4778 232.22C20.9511 232.613 21.1878 233.14 21.1878 233.8C21.1878 234.227 21.0811 234.617 20.8678 234.97C20.6545 235.317 20.3278 235.597 19.8878 235.81C19.4545 236.017 18.9178 236.12 18.2778 236.12C17.7845 236.12 17.2978 236.057 16.8178 235.93C16.3445 235.797 15.9411 235.61 15.6078 235.37L16.2478 234.13C16.5145 234.33 16.8211 234.487 17.1678 234.6C17.5145 234.707 17.8711 234.76 18.2378 234.76C18.6445 234.76 18.9645 234.68 19.1978 234.52C19.4311 234.36 19.5478 234.137 19.5478 233.85C19.5478 233.55 19.4245 233.323 19.1778 233.17C18.9378 233.017 18.5178 232.94 17.9178 232.94H16.1278L16.4878 229H20.7578V230.3H17.8378L17.7278 231.63H18.2978Z" fill="white"/>
<path d="M274.574 20H325C327.761 20 330 22.2386 330 25V57C330 59.7614 327.761 62 325 62H274.574L265 41L274.574 20Z" fill="url(#paint7_linear_83_7763)"/>
<path d="M301.293 40.134C303.069 40.134 304.377 40.488 305.217 41.196C306.069 41.904 306.495 42.852 306.495 44.04C306.495 44.808 306.303 45.51 305.919 46.146C305.535 46.77 304.947 47.274 304.155 47.658C303.375 48.03 302.409 48.216 301.257 48.216C300.369 48.216 299.493 48.102 298.629 47.874C297.777 47.634 297.051 47.298 296.451 46.866L297.603 44.634C298.083 44.994 298.635 45.276 299.259 45.48C299.883 45.672 300.525 45.768 301.185 45.768C301.917 45.768 302.493 45.624 302.913 45.336C303.333 45.048 303.543 44.646 303.543 44.13C303.543 43.59 303.321 43.182 302.877 42.906C302.445 42.63 301.689 42.492 300.609 42.492H297.387L298.035 35.4H305.721V37.74H300.465L300.267 40.134H301.293ZM312.322 32.844H314.824L308.884 49.8H306.382L312.322 32.844ZM319.046 40.134C320.822 40.134 322.13 40.488 322.97 41.196C323.822 41.904 324.248 42.852 324.248 44.04C324.248 44.808 324.056 45.51 323.672 46.146C323.288 46.77 322.7 47.274 321.908 47.658C321.128 48.03 320.162 48.216 319.01 48.216C318.122 48.216 317.246 48.102 316.382 47.874C315.53 47.634 314.804 47.298 314.204 46.866L315.356 44.634C315.836 44.994 316.388 45.276 317.012 45.48C317.636 45.672 318.278 45.768 318.938 45.768C319.67 45.768 320.246 45.624 320.666 45.336C321.086 45.048 321.296 44.646 321.296 44.13C321.296 43.59 321.074 43.182 320.63 42.906C320.198 42.63 319.442 42.492 318.362 42.492H315.14L315.788 35.4H323.474V37.74H318.218L318.02 40.134H319.046Z" fill="white"/>
<ellipse cx="138.26" cy="63.4396" rx="3.01802" ry="3.01337" fill="white"/>
<path d="M140.778 63.4396C140.778 64.827 139.652 65.953 138.26 65.953C136.869 65.953 135.742 64.827 135.742 63.4396C135.742 62.0523 136.869 60.9263 138.26 60.9263C139.652 60.9263 140.778 62.0523 140.778 63.4396Z" stroke="black" stroke-opacity="0.3"/>
<ellipse cx="164.94" cy="63.4396" rx="3.01802" ry="3.01337" fill="white"/>
<path d="M167.458 63.4396C167.458 64.827 166.331 65.953 164.94 65.953C163.548 65.953 162.422 64.827 162.422 63.4396C162.422 62.0523 163.548 60.9263 164.94 60.9263C166.331 60.9263 167.458 62.0523 167.458 63.4396Z" stroke="black" stroke-opacity="0.3"/>
<ellipse cx="191.619" cy="63.4396" rx="3.01801" ry="3.01337" fill="white"/>
<path d="M194.137 63.4396C194.137 64.827 193.01 65.953 191.619 65.953C190.228 65.953 189.101 64.827 189.101 63.4396C189.101 62.0523 190.228 60.9263 191.619 60.9263C193.01 60.9263 194.137 62.0523 194.137 63.4396Z" stroke="black" stroke-opacity="0.3"/>
<ellipse cx="124.921" cy="93.8145" rx="3.01802" ry="3.01337" fill="white"/>
<path d="M127.439 93.8145C127.439 95.2018 126.312 96.3278 124.921 96.3278C123.529 96.3278 122.403 95.2018 122.403 93.8145C122.403 92.4271 123.529 91.3011 124.921 91.3011C126.312 91.3011 127.439 92.4271 127.439 93.8145Z" stroke="black" stroke-opacity="0.3"/>
<ellipse cx="151.6" cy="93.8145" rx="3.01802" ry="3.01337" fill="white"/>
<path d="M154.118 93.8145C154.118 95.2018 152.991 96.3278 151.6 96.3278C150.209 96.3278 149.082 95.2018 149.082 93.8145C149.082 92.4271 150.209 91.3011 151.6 91.3011C152.991 91.3011 154.118 92.4271 154.118 93.8145Z" stroke="black" stroke-opacity="0.3"/>
<ellipse cx="178.279" cy="93.8145" rx="3.01802" ry="3.01337" fill="white"/>
<path d="M180.797 93.8145C180.797 95.2018 179.671 96.3278 178.279 96.3278C176.888 96.3278 175.761 95.2018 175.761 93.8145C175.761 92.4271 176.888 91.3011 178.279 91.3011C179.671 91.3011 180.797 92.4271 180.797 93.8145Z" stroke="black" stroke-opacity="0.3"/>
<ellipse cx="204.959" cy="93.8145" rx="3.01802" ry="3.01337" fill="white"/>
<path d="M207.477 93.8145C207.477 95.2018 206.35 96.3278 204.959 96.3278C203.567 96.3278 202.44 95.2018 202.44 93.8145C202.44 92.4271 203.567 91.3011 204.959 91.3011C206.35 91.3011 207.477 92.4271 207.477 93.8145Z" stroke="black" stroke-opacity="0.3"/>
<ellipse cx="111.581" cy="124.189" rx="3.01802" ry="3.01337" fill="white"/>
<path d="M114.099 124.189C114.099 125.577 112.972 126.703 111.581 126.703C110.19 126.703 109.063 125.577 109.063 124.189C109.063 122.802 110.19 121.676 111.581 121.676C112.972 121.676 114.099 122.802 114.099 124.189Z" stroke="black" stroke-opacity="0.3"/>
<ellipse cx="138.26" cy="124.189" rx="3.01802" ry="3.01337" fill="white"/>
<path d="M140.778 124.189C140.778 125.577 139.652 126.703 138.26 126.703C136.869 126.703 135.742 125.577 135.742 124.189C135.742 122.802 136.869 121.676 138.26 121.676C139.652 121.676 140.778 122.802 140.778 124.189Z" stroke="black" stroke-opacity="0.3"/>
<ellipse cx="164.94" cy="124.189" rx="3.01802" ry="3.01337" fill="white"/>
<path d="M167.458 124.189C167.458 125.577 166.331 126.703 164.94 126.703C163.548 126.703 162.422 125.577 162.422 124.189C162.422 122.802 163.548 121.676 164.94 121.676C166.331 121.676 167.458 122.802 167.458 124.189Z" stroke="black" stroke-opacity="0.3"/>
<ellipse cx="191.619" cy="124.189" rx="3.01801" ry="3.01337" fill="white"/>
<path d="M194.137 124.189C194.137 125.577 193.01 126.703 191.619 126.703C190.228 126.703 189.101 125.577 189.101 124.189C189.101 122.802 190.228 121.676 191.619 121.676C193.01 121.676 194.137 122.802 194.137 124.189Z" stroke="black" stroke-opacity="0.3"/>
<ellipse cx="218.298" cy="124.189" rx="3.01801" ry="3.01337" fill="white"/>
<path d="M220.816 124.189C220.816 125.577 219.69 126.703 218.298 126.703C216.907 126.703 215.78 125.577 215.78 124.189C215.78 122.802 216.907 121.676 218.298 121.676C219.69 121.676 220.816 122.802 220.816 124.189Z" stroke="black" stroke-opacity="0.3"/>
<ellipse cx="98.2415" cy="154.564" rx="3.01802" ry="3.01337" fill="white"/>
<path d="M100.759 154.564C100.759 155.951 99.6329 157.077 98.2415 157.077C96.8501 157.077 95.7234 155.951 95.7234 154.564C95.7234 153.177 96.8501 152.051 98.2415 152.051C99.6329 152.051 100.759 153.177 100.759 154.564Z" stroke="black" stroke-opacity="0.3"/>
<ellipse cx="124.921" cy="154.564" rx="3.01802" ry="3.01337" fill="white"/>
<path d="M127.439 154.564C127.439 155.951 126.312 157.077 124.921 157.077C123.529 157.077 122.403 155.951 122.403 154.564C122.403 153.177 123.529 152.051 124.921 152.051C126.312 152.051 127.439 153.177 127.439 154.564Z" stroke="black" stroke-opacity="0.3"/>
<ellipse cx="151.6" cy="154.564" rx="3.01802" ry="3.01337" fill="white"/>
<path d="M154.118 154.564C154.118 155.951 152.991 157.077 151.6 157.077C150.209 157.077 149.082 155.951 149.082 154.564C149.082 153.177 150.209 152.051 151.6 152.051C152.991 152.051 154.118 153.177 154.118 154.564Z" stroke="black" stroke-opacity="0.3"/>
<ellipse cx="178.279" cy="154.564" rx="3.01802" ry="3.01337" fill="white"/>
<path d="M180.797 154.564C180.797 155.951 179.671 157.077 178.279 157.077C176.888 157.077 175.761 155.951 175.761 154.564C175.761 153.177 176.888 152.051 178.279 152.051C179.671 152.051 180.797 153.177 180.797 154.564Z" stroke="black" stroke-opacity="0.3"/>
<ellipse cx="204.959" cy="154.564" rx="3.01802" ry="3.01337" fill="white"/>
<path d="M207.477 154.564C207.477 155.951 206.35 157.077 204.959 157.077C203.567 157.077 202.44 155.951 202.44 154.564C202.44 153.177 203.567 152.051 204.959 152.051C206.35 152.051 207.477 153.177 207.477 154.564Z" stroke="black" stroke-opacity="0.3"/>
<ellipse cx="231.638" cy="154.564" rx="3.01802" ry="3.01337" fill="white"/>
<path d="M234.156 154.564C234.156 155.951 233.029 157.077 231.638 157.077C230.246 157.077 229.12 155.951 229.12 154.564C229.12 153.177 230.246 152.051 231.638 152.051C233.029 152.051 234.156 153.177 234.156 154.564Z" stroke="black" stroke-opacity="0.3"/>
<ellipse cx="84.9018" cy="184.939" rx="3.01802" ry="3.01337" fill="white"/>
<path d="M87.4198 184.939C87.4198 186.326 86.2932 187.452 84.9018 187.452C83.5104 187.452 82.3838 186.326 82.3838 184.939C82.3838 183.552 83.5104 182.426 84.9018 182.426C86.2932 182.426 87.4198 183.552 87.4198 184.939Z" stroke="black" stroke-opacity="0.3"/>
<ellipse cx="111.581" cy="184.939" rx="3.01802" ry="3.01337" fill="white"/>
<path d="M114.099 184.939C114.099 186.326 112.972 187.452 111.581 187.452C110.19 187.452 109.063 186.326 109.063 184.939C109.063 183.552 110.19 182.426 111.581 182.426C112.972 182.426 114.099 183.552 114.099 184.939Z" stroke="black" stroke-opacity="0.3"/>
<ellipse cx="138.26" cy="184.939" rx="3.01802" ry="3.01337" fill="white"/>
<path d="M140.778 184.939C140.778 186.326 139.652 187.452 138.26 187.452C136.869 187.452 135.742 186.326 135.742 184.939C135.742 183.552 136.869 182.426 138.26 182.426C139.652 182.426 140.778 183.552 140.778 184.939Z" stroke="black" stroke-opacity="0.3"/>
<ellipse cx="164.94" cy="184.939" rx="3.01802" ry="3.01337" fill="white"/>
<path d="M167.458 184.939C167.458 186.326 166.331 187.452 164.94 187.452C163.548 187.452 162.422 186.326 162.422 184.939C162.422 183.552 163.548 182.426 164.94 182.426C166.331 182.426 167.458 183.552 167.458 184.939Z" stroke="black" stroke-opacity="0.3"/>
<ellipse cx="191.619" cy="184.939" rx="3.01801" ry="3.01337" fill="white"/>
<path d="M194.137 184.939C194.137 186.326 193.01 187.452 191.619 187.452C190.228 187.452 189.101 186.326 189.101 184.939C189.101 183.552 190.228 182.426 191.619 182.426C193.01 182.426 194.137 183.552 194.137 184.939Z" stroke="black" stroke-opacity="0.3"/>
<ellipse cx="218.298" cy="184.939" rx="3.01801" ry="3.01337" fill="white"/>
<path d="M220.816 184.939C220.816 186.326 219.69 187.452 218.298 187.452C216.907 187.452 215.78 186.326 215.78 184.939C215.78 183.552 216.907 182.426 218.298 182.426C219.69 182.426 220.816 183.552 220.816 184.939Z" stroke="black" stroke-opacity="0.3"/>
<ellipse cx="244.977" cy="184.939" rx="3.01802" ry="3.01337" fill="white"/>
<path d="M247.496 184.939C247.496 186.326 246.369 187.452 244.977 187.452C243.586 187.452 242.459 186.326 242.459 184.939C242.459 183.552 243.586 182.426 244.977 182.426C246.369 182.426 247.496 183.552 247.496 184.939Z" stroke="black" stroke-opacity="0.3"/>
<ellipse cx="71.5621" cy="215.314" rx="3.01802" ry="3.01337" fill="white"/>
<path d="M74.0802 215.314C74.0802 216.701 72.9535 217.827 71.5621 217.827C70.1708 217.827 69.0441 216.701 69.0441 215.314C69.0441 213.926 70.1708 212.8 71.5621 212.8C72.9535 212.8 74.0802 213.926 74.0802 215.314Z" stroke="black" stroke-opacity="0.3"/>
<ellipse cx="98.2415" cy="215.314" rx="3.01802" ry="3.01337" fill="white"/>
<path d="M100.759 215.314C100.759 216.701 99.6329 217.827 98.2415 217.827C96.8501 217.827 95.7234 216.701 95.7234 215.314C95.7234 213.926 96.8501 212.8 98.2415 212.8C99.6329 212.8 100.759 213.926 100.759 215.314Z" stroke="black" stroke-opacity="0.3"/>
<ellipse cx="124.921" cy="215.314" rx="3.01802" ry="3.01337" fill="white"/>
<path d="M127.439 215.314C127.439 216.701 126.312 217.827 124.921 217.827C123.529 217.827 122.403 216.701 122.403 215.314C122.403 213.926 123.529 212.8 124.921 212.8C126.312 212.8 127.439 213.926 127.439 215.314Z" stroke="black" stroke-opacity="0.3"/>
<ellipse cx="151.6" cy="215.314" rx="3.01802" ry="3.01337" fill="white"/>
<path d="M154.118 215.314C154.118 216.701 152.991 217.827 151.6 217.827C150.209 217.827 149.082 216.701 149.082 215.314C149.082 213.926 150.209 212.8 151.6 212.8C152.991 212.8 154.118 213.926 154.118 215.314Z" stroke="black" stroke-opacity="0.3"/>
<ellipse cx="178.279" cy="215.314" rx="3.01802" ry="3.01337" fill="white"/>
<path d="M180.797 215.314C180.797 216.701 179.671 217.827 178.279 217.827C176.888 217.827 175.761 216.701 175.761 215.314C175.761 213.926 176.888 212.8 178.279 212.8C179.671 212.8 180.797 213.926 180.797 215.314Z" stroke="black" stroke-opacity="0.3"/>
<ellipse cx="204.959" cy="215.314" rx="3.01802" ry="3.01337" fill="white"/>
<path d="M207.477 215.314C207.477 216.701 206.35 217.827 204.959 217.827C203.567 217.827 202.44 216.701 202.44 215.314C202.44 213.926 203.567 212.8 204.959 212.8C206.35 212.8 207.477 213.926 207.477 215.314Z" stroke="black" stroke-opacity="0.3"/>
<ellipse cx="231.638" cy="215.314" rx="3.01802" ry="3.01337" fill="white"/>
<path d="M234.156 215.314C234.156 216.701 233.029 217.827 231.638 217.827C230.246 217.827 229.12 216.701 229.12 215.314C229.12 213.926 230.246 212.8 231.638 212.8C233.029 212.8 234.156 213.926 234.156 215.314Z" stroke="black" stroke-opacity="0.3"/>
<ellipse cx="258.317" cy="215.314" rx="3.01801" ry="3.01337" fill="white"/>
<path d="M260.835 215.314C260.835 216.701 259.709 217.827 258.317 217.827C256.926 217.827 255.799 216.701 255.799 215.314C255.799 213.926 256.926 212.8 258.317 212.8C259.709 212.8 260.835 213.926 260.835 215.314Z" stroke="black" stroke-opacity="0.3"/>
<ellipse cx="58.2225" cy="245.688" rx="3.01802" ry="3.01337" fill="white"/>
<path d="M60.7405 245.688C60.7405 247.076 59.6139 248.202 58.2225 248.202C56.8311 248.202 55.7045 247.076 55.7045 245.688C55.7045 244.301 56.8311 243.175 58.2225 243.175C59.6139 243.175 60.7405 244.301 60.7405 245.688Z" stroke="black" stroke-opacity="0.3"/>
<ellipse cx="84.9018" cy="245.688" rx="3.01802" ry="3.01337" fill="white"/>
<path d="M87.4198 245.688C87.4198 247.076 86.2932 248.202 84.9018 248.202C83.5104 248.202 82.3838 247.076 82.3838 245.688C82.3838 244.301 83.5104 243.175 84.9018 243.175C86.2932 243.175 87.4198 244.301 87.4198 245.688Z" stroke="black" stroke-opacity="0.3"/>
<ellipse cx="111.581" cy="245.688" rx="3.01802" ry="3.01337" fill="white"/>
<path d="M114.099 245.688C114.099 247.076 112.972 248.202 111.581 248.202C110.19 248.202 109.063 247.076 109.063 245.688C109.063 244.301 110.19 243.175 111.581 243.175C112.972 243.175 114.099 244.301 114.099 245.688Z" stroke="black" stroke-opacity="0.3"/>
<ellipse cx="138.26" cy="245.688" rx="3.01802" ry="3.01337" fill="white"/>
<path d="M140.778 245.688C140.778 247.076 139.652 248.202 138.26 248.202C136.869 248.202 135.742 247.076 135.742 245.688C135.742 244.301 136.869 243.175 138.26 243.175C139.652 243.175 140.778 244.301 140.778 245.688Z" stroke="black" stroke-opacity="0.3"/>
<ellipse cx="164.94" cy="245.688" rx="3.01802" ry="3.01337" fill="white"/>
<path d="M167.458 245.688C167.458 247.076 166.331 248.202 164.94 248.202C163.548 248.202 162.422 247.076 162.422 245.688C162.422 244.301 163.548 243.175 164.94 243.175C166.331 243.175 167.458 244.301 167.458 245.688Z" stroke="black" stroke-opacity="0.3"/>
<ellipse cx="191.619" cy="245.688" rx="3.01801" ry="3.01337" fill="white"/>
<path d="M194.137 245.688C194.137 247.076 193.01 248.202 191.619 248.202C190.228 248.202 189.101 247.076 189.101 245.688C189.101 244.301 190.228 243.175 191.619 243.175C193.01 243.175 194.137 244.301 194.137 245.688Z" stroke="black" stroke-opacity="0.3"/>
<ellipse cx="218.298" cy="245.688" rx="3.01801" ry="3.01337" fill="white"/>
<path d="M220.816 245.688C220.816 247.076 219.69 248.202 218.298 248.202C216.907 248.202 215.78 247.076 215.78 245.688C215.78 244.301 216.907 243.175 218.298 243.175C219.69 243.175 220.816 244.301 220.816 245.688Z" stroke="black" stroke-opacity="0.3"/>
<ellipse cx="244.977" cy="245.688" rx="3.01802" ry="3.01337" fill="white"/>
<path d="M247.496 245.688C247.496 247.076 246.369 248.202 244.977 248.202C243.586 248.202 242.459 247.076 242.459 245.688C242.459 244.301 243.586 243.175 244.977 243.175C246.369 243.175 247.496 244.301 247.496 245.688Z" stroke="black" stroke-opacity="0.3"/>
<ellipse cx="271.657" cy="245.688" rx="3.01802" ry="3.01337" fill="white"/>
<path d="M274.175 245.688C274.175 247.076 273.048 248.202 271.657 248.202C270.265 248.202 269.139 247.076 269.139 245.688C269.139 244.301 270.265 243.175 271.657 243.175C273.048 243.175 274.175 244.301 274.175 245.688Z" stroke="black" stroke-opacity="0.3"/>
<ellipse cx="44.8829" cy="276.063" rx="3.01802" ry="3.01337" fill="white"/>
<path d="M47.4009 276.063C47.4009 277.451 46.2743 278.577 44.8829 278.577C43.4915 278.577 42.3649 277.451 42.3649 276.063C42.3649 274.676 43.4915 273.55 44.8829 273.55C46.2743 273.55 47.4009 274.676 47.4009 276.063Z" stroke="black" stroke-opacity="0.3"/>
<ellipse cx="71.5621" cy="276.063" rx="3.01802" ry="3.01337" fill="white"/>
<path d="M74.0802 276.063C74.0802 277.451 72.9535 278.577 71.5621 278.577C70.1708 278.577 69.0441 277.451 69.0441 276.063C69.0441 274.676 70.1708 273.55 71.5621 273.55C72.9535 273.55 74.0802 274.676 74.0802 276.063Z" stroke="black" stroke-opacity="0.3"/>
<ellipse cx="98.2415" cy="276.063" rx="3.01802" ry="3.01337" fill="white"/>
<path d="M100.759 276.063C100.759 277.451 99.6329 278.577 98.2415 278.577C96.8501 278.577 95.7234 277.451 95.7234 276.063C95.7234 274.676 96.8501 273.55 98.2415 273.55C99.6329 273.55 100.759 274.676 100.759 276.063Z" stroke="black" stroke-opacity="0.3"/>
<ellipse cx="124.921" cy="276.063" rx="3.01802" ry="3.01337" fill="white"/>
<path d="M127.439 276.063C127.439 277.451 126.312 278.577 124.921 278.577C123.529 278.577 122.403 277.451 122.403 276.063C122.403 274.676 123.529 273.55 124.921 273.55C126.312 273.55 127.439 274.676 127.439 276.063Z" stroke="black" stroke-opacity="0.3"/>
<ellipse cx="151.6" cy="276.063" rx="3.01802" ry="3.01337" fill="white"/>
<path d="M154.118 276.063C154.118 277.451 152.991 278.577 151.6 278.577C150.209 278.577 149.082 277.451 149.082 276.063C149.082 274.676 150.209 273.55 151.6 273.55C152.991 273.55 154.118 274.676 154.118 276.063Z" stroke="black" stroke-opacity="0.3"/>
<ellipse cx="178.279" cy="276.063" rx="3.01802" ry="3.01337" fill="white"/>
<path d="M180.797 276.063C180.797 277.451 179.671 278.577 178.279 278.577C176.888 278.577 175.761 277.451 175.761 276.063C175.761 274.676 176.888 273.55 178.279 273.55C179.671 273.55 180.797 274.676 180.797 276.063Z" stroke="black" stroke-opacity="0.3"/>
<ellipse cx="204.959" cy="276.063" rx="3.01802" ry="3.01337" fill="white"/>
<path d="M207.477 276.063C207.477 277.451 206.35 278.577 204.959 278.577C203.567 278.577 202.44 277.451 202.44 276.063C202.44 274.676 203.567 273.55 204.959 273.55C206.35 273.55 207.477 274.676 207.477 276.063Z" stroke="black" stroke-opacity="0.3"/>
<ellipse cx="231.638" cy="276.063" rx="3.01802" ry="3.01337" fill="white"/>
<path d="M234.156 276.063C234.156 277.451 233.029 278.577 231.638 278.577C230.246 278.577 229.12 277.451 229.12 276.063C229.12 274.676 230.246 273.55 231.638 273.55C233.029 273.55 234.156 274.676 234.156 276.063Z" stroke="black" stroke-opacity="0.3"/>
<ellipse cx="258.317" cy="276.063" rx="3.01801" ry="3.01337" fill="white"/>
<path d="M260.835 276.063C260.835 277.451 259.709 278.577 258.317 278.577C256.926 278.577 255.799 277.451 255.799 276.063C255.799 274.676 256.926 273.55 258.317 273.55C259.709 273.55 260.835 274.676 260.835 276.063Z" stroke="black" stroke-opacity="0.3"/>
<ellipse cx="284.996" cy="276.063" rx="3.01801" ry="3.01337" fill="white"/>
<path d="M287.514 276.063C287.514 277.451 286.388 278.577 284.996 278.577C283.605 278.577 282.478 277.451 282.478 276.063C282.478 274.676 283.605 273.55 284.996 273.55C286.388 273.55 287.514 274.676 287.514 276.063Z" stroke="black" stroke-opacity="0.3"/>
<defs>
<radialGradient id="paint0_radial_83_7763" cx="0" cy="0" r="1" gradientUnits="userSpaceOnUse" gradientTransform="translate(53.877 69.25) rotate(-136.351) scale(68.4543 73.4262)">
<stop offset="1" stop-color="#8A1177"/>
<stop stop-color="#D930C8"/>
</radialGradient>
<linearGradient id="paint1_linear_83_7763" x1="277.604" y1="73.625" x2="330.99" y2="79.7068" gradientUnits="userSpaceOnUse">
<stop stop-color="#5500C1"/>
<stop offset="1" stop-color="#420D85"/>
</linearGradient>
<linearGradient id="paint2_linear_83_7763" x1="52.396" y1="90.625" x2="-0.990215" y2="96.7068" gradientUnits="userSpaceOnUse">
<stop stop-color="#C100AD"/>
<stop offset="1" stop-color="#4DC1C8"/>
</linearGradient>
<linearGradient id="paint3_linear_83_7763" x1="286.493" y1="119.063" x2="330.907" y2="123.731" gradientUnits="userSpaceOnUse">
<stop stop-color="#4197E7"/>
<stop offset="1" stop-color="#3B49C8"/>
</linearGradient>
<linearGradient id="paint4_linear_83_7763" x1="44.0074" y1="152.063" x2="-0.406888" y2="156.731" gradientUnits="userSpaceOnUse">
<stop stop-color="#C100AD"/>
<stop offset="1" stop-color="#4DC1C8"/>
</linearGradient>
<linearGradient id="paint5_linear_83_7763" x1="294.446" y1="160.5" x2="330.803" y2="164.013" gradientUnits="userSpaceOnUse">
<stop stop-color="#006F68"/>
<stop offset="1" stop-color="#13B623"/>
</linearGradient>
<linearGradient id="paint6_linear_83_7763" x1="35.5545" y1="214.5" x2="-0.802602" y2="218.013" gradientUnits="userSpaceOnUse">
<stop stop-color="#C100AD"/>
<stop offset="1" stop-color="#4DC1C8"/>
</linearGradient>
<linearGradient id="paint7_linear_83_7763" x1="269.183" y1="25.9063" x2="330.974" y2="33.6877" gradientUnits="userSpaceOnUse">
<stop stop-color="#FF852D"/>
<stop offset="1" stop-color="#BC4B1B"/>
</linearGradient>
</defs>
</svg>
