<svg width="24" height="38" viewBox="0 0 24 38" fill="none" xmlns="http://www.w3.org/2000/svg">
<g filter="url(#filter0_i_11_3574)">
<path d="M0 0H14C19.5228 0 24 4.47715 24 10V28C24 33.5228 19.5228 38 14 38H0V0Z" fill="url(#paint0_linear_11_3574)"/>
<path fill-rule="evenodd" clip-rule="evenodd" d="M14.0303 14.4697C14.3232 14.7626 14.3232 15.2374 14.0303 15.5303L10.5607 19L14.0303 22.4697C14.3232 22.7626 14.3232 23.2374 14.0303 23.5303C13.7374 23.8232 13.2626 23.8232 12.9697 23.5303L8.96967 19.5303C8.67678 19.2374 8.67678 18.7626 8.96967 18.4697L12.9697 14.4697C13.2626 14.1768 13.7374 14.1768 14.0303 14.4697Z" fill="url(#paint1_linear_11_3574)"/>
</g>
<defs>
<filter id="filter0_i_11_3574" x="0" y="0" width="24" height="38" filterUnits="userSpaceOnUse" color-interpolation-filters="sRGB">
<feFlood flood-opacity="0" result="BackgroundImageFix"/>
<feBlend mode="normal" in="SourceGraphic" in2="BackgroundImageFix" result="shape"/>
<feColorMatrix in="SourceAlpha" type="matrix" values="0 0 0 0 0 0 0 0 0 0 0 0 0 0 0 0 0 0 127 0" result="hardAlpha"/>
<feOffset/>
<feGaussianBlur stdDeviation="7.5"/>
<feComposite in2="hardAlpha" operator="arithmetic" k2="-1" k3="1"/>
<feColorMatrix type="matrix" values="0 0 0 0 0.763537 0 0 0 0 0.33245 0 0 0 0 0.915 0 0 0 1 0"/>
<feBlend mode="normal" in2="shape" result="effect1_innerShadow_11_3574"/>
</filter>
<linearGradient id="paint0_linear_11_3574" x1="13.2937" y1="6.05628e-07" x2="13.2937" y2="38" gradientUnits="userSpaceOnUse">
<stop stop-color="white"/>
<stop offset="1" stop-color="#E2E9EC"/>
</linearGradient>
<linearGradient id="paint1_linear_11_3574" x1="9.10396" y1="15.5859" x2="14.4035" y2="15.8356" gradientUnits="userSpaceOnUse">
<stop stop-color="#C100AD"/>
<stop offset="1" stop-color="#4DC1C8"/>
</linearGradient>
</defs>
</svg>
