<svg width="26" height="15" viewBox="0 0 26 15" fill="none" xmlns="http://www.w3.org/2000/svg">
<path d="M0 6.31301C0 3.08877 3.00666 0.707449 6.1452 1.44593L9.31441 2.19162C11.5739 2.72328 13.926 2.72328 16.1856 2.19163L19.3548 1.44593C22.4933 0.70745 25.5 3.08877 25.5 6.31301V10C25.5 12.7614 23.2614 15 20.5 15H5C2.23858 15 0 12.7614 0 10V6.31301Z" fill="#318EFB"/>
<path d="M9.69634 6.4H10.8163V12H9.53634V7.752L8.54434 8.024L8.23234 6.928L9.69634 6.4ZM13.0349 11.888C12.8856 12.0373 12.7069 12.112 12.4989 12.112C12.2909 12.112 12.1122 12.0373 11.9629 11.888C11.8136 11.7387 11.7389 11.56 11.7389 11.352C11.7389 11.144 11.8136 10.9653 11.9629 10.816C12.1122 10.6667 12.2909 10.592 12.4989 10.592C12.7069 10.592 12.8856 10.6667 13.0349 10.816C13.1842 10.9653 13.2589 11.144 13.2589 11.352C13.2589 11.56 13.1842 11.7387 13.0349 11.888ZM15.1651 6.4H16.2851V12H15.0051V7.752L14.0131 8.024L13.7011 6.928L15.1651 6.4Z" fill="white"/>
</svg>
