<svg width="12" height="12" viewBox="0 0 12 12" fill="none" xmlns="http://www.w3.org/2000/svg">
<circle cx="6" cy="6" r="6" fill="url(#paint0_linear_37_2420)"/>
<path d="M9.15633 9L7.98383 7.14L6.82749 9H5L7.06199 5.96571L5.08895 3H6.89218L8.02426 4.73143L9.14016 3H10.8706L8.89757 5.89714L11 9H9.15633Z" fill="white"/>
<path d="M5 7.68067V9H1.24785V7.95798L3.05164 5.89916C3.22605 5.69748 3.34309 5.52661 3.40275 5.38655C3.46242 5.2409 3.49225 5.09524 3.49225 4.94958C3.49225 4.7591 3.43947 4.61064 3.33391 4.5042C3.22834 4.39776 3.07458 4.34454 2.87263 4.34454C2.69363 4.34454 2.5284 4.39496 2.37694 4.4958C2.23006 4.59104 2.10843 4.73109 2.01205 4.91597L1 4.22689C1.18818 3.84594 1.45209 3.54622 1.79174 3.32773C2.13138 3.10924 2.53299 3 2.99656 3C3.36374 3 3.68732 3.07283 3.9673 3.21849C4.25186 3.36415 4.47217 3.57423 4.62823 3.84874C4.78887 4.11765 4.86919 4.43137 4.86919 4.78992C4.86919 5.10924 4.81182 5.41176 4.69707 5.69748C4.58692 5.97759 4.3712 6.29692 4.04991 6.65546L3.14114 7.68067H5Z" fill="white"/>
<defs>
<linearGradient id="paint0_linear_37_2420" x1="0.772277" y1="1.6875" x2="12.2844" y2="2.62427" gradientUnits="userSpaceOnUse">
<stop stop-color="#006F68"/>
<stop offset="1" stop-color="#13B623"/>
</linearGradient>
</defs>
</svg>
