<svg width="69" height="38" viewBox="0 0 69 38" fill="none" xmlns="http://www.w3.org/2000/svg">
<g filter="url(#filter0_i_5_196)">
<rect width="69" height="38" rx="19" fill="url(#paint0_linear_5_196)"/>
<path d="M24.3682 14.6C25.2402 14.6 25.9682 14.876 26.5522 15.428C27.1362 15.972 27.4282 16.7 27.4282 17.612C27.4282 18.524 27.1362 19.256 26.5522 19.808C25.9682 20.352 25.2402 20.624 24.3682 20.624H23.4082V23H21.0082V14.6H24.3682ZM24.3682 18.296C24.5522 18.296 24.7082 18.236 24.8362 18.116C24.9642 17.988 25.0282 17.82 25.0282 17.612C25.0282 17.404 24.9642 17.24 24.8362 17.12C24.7082 16.992 24.5522 16.928 24.3682 16.928H23.4082V18.296H24.3682ZM30.5449 20.672H33.3049V23H28.1449V14.6H30.5449V20.672ZM39.1221 23L38.8341 21.92H36.4101L36.1221 23H33.5421L36.2181 14.6H39.0261L41.7021 23H39.1221ZM36.9261 20H38.3181L37.6221 17.42L36.9261 20ZM48.5939 14.6L45.7499 19.808V23H43.3499V19.808L40.5059 14.6H43.1699L44.5499 17.552L45.9299 14.6H48.5939Z" fill="url(#paint1_linear_5_196)"/>
</g>
<defs>
<filter id="filter0_i_5_196" x="0" y="0" width="69" height="38" filterUnits="userSpaceOnUse" color-interpolation-filters="sRGB">
<feFlood flood-opacity="0" result="BackgroundImageFix"/>
<feBlend mode="normal" in="SourceGraphic" in2="BackgroundImageFix" result="shape"/>
<feColorMatrix in="SourceAlpha" type="matrix" values="0 0 0 0 0 0 0 0 0 0 0 0 0 0 0 0 0 0 127 0" result="hardAlpha"/>
<feOffset/>
<feGaussianBlur stdDeviation="15.5"/>
<feComposite in2="hardAlpha" operator="arithmetic" k2="-1" k3="1"/>
<feColorMatrix type="matrix" values="0 0 0 0 0.763537 0 0 0 0 0.33245 0 0 0 0 0.915 0 0 0 1 0"/>
<feBlend mode="normal" in2="shape" result="effect1_innerShadow_5_196"/>
</filter>
<linearGradient id="paint0_linear_5_196" x1="38.2193" y1="6.05628e-07" x2="38.2193" y2="38" gradientUnits="userSpaceOnUse">
<stop stop-color="white"/>
<stop offset="1" stop-color="#E2E9EC"/>
</linearGradient>
<linearGradient id="paint1_linear_5_196" x1="21.8663" y1="16.125" x2="47.6299" y2="23.7246" gradientUnits="userSpaceOnUse">
<stop stop-color="#C100AD"/>
<stop offset="1" stop-color="#4DC1C8"/>
</linearGradient>
</defs>
</svg>
