<svg width="24" height="38" viewBox="0 0 24 38" fill="none" xmlns="http://www.w3.org/2000/svg">
<g filter="url(#filter0_i_11_3571)">
<path d="M0 0H14C19.5228 0 24 4.47715 24 10V28C24 33.5228 19.5228 38 14 38H0V0Z" fill="url(#paint0_linear_11_3571)"/>
<path fill-rule="evenodd" clip-rule="evenodd" d="M9.96967 14.4697C10.2626 14.1768 10.7374 14.1768 11.0303 14.4697L15.0303 18.4697C15.3232 18.7626 15.3232 19.2374 15.0303 19.5303L11.0303 23.5303C10.7374 23.8232 10.2626 23.8232 9.96967 23.5303C9.67678 23.2374 9.67678 22.7626 9.96967 22.4697L13.4393 19L9.96967 15.5303C9.67678 15.2374 9.67678 14.7626 9.96967 14.4697Z" fill="url(#paint1_linear_11_3571)"/>
</g>
<defs>
<filter id="filter0_i_11_3571" x="0" y="0" width="24" height="38" filterUnits="userSpaceOnUse" color-interpolation-filters="sRGB">
<feFlood flood-opacity="0" result="BackgroundImageFix"/>
<feBlend mode="normal" in="SourceGraphic" in2="BackgroundImageFix" result="shape"/>
<feColorMatrix in="SourceAlpha" type="matrix" values="0 0 0 0 0 0 0 0 0 0 0 0 0 0 0 0 0 0 127 0" result="hardAlpha"/>
<feOffset/>
<feGaussianBlur stdDeviation="7.5"/>
<feComposite in2="hardAlpha" operator="arithmetic" k2="-1" k3="1"/>
<feColorMatrix type="matrix" values="0 0 0 0 0.763537 0 0 0 0 0.33245 0 0 0 0 0.915 0 0 0 1 0"/>
<feBlend mode="normal" in2="shape" result="effect1_innerShadow_11_3571"/>
</filter>
<linearGradient id="paint0_linear_11_3571" x1="13.2937" y1="6.05628e-07" x2="13.2937" y2="38" gradientUnits="userSpaceOnUse">
<stop stop-color="white"/>
<stop offset="1" stop-color="#E2E9EC"/>
</linearGradient>
<linearGradient id="paint1_linear_11_3571" x1="10.104" y1="15.5859" x2="15.4035" y2="15.8356" gradientUnits="userSpaceOnUse">
<stop stop-color="#C100AD"/>
<stop offset="1" stop-color="#4DC1C8"/>
</linearGradient>
</defs>
</svg>
