<svg width="38" height="38" viewBox="0 0 38 38" fill="none" xmlns="http://www.w3.org/2000/svg">
<rect width="38" height="38" rx="19" fill="url(#paint0_linear_90_5544)"/>
<rect width="38" height="38" rx="19" fill="url(#paint1_linear_90_5544)" fill-opacity="0.6"/>
<path d="M18.3861 8.21065C18.7472 7.92978 19.2528 7.92978 19.6139 8.21065L28.6139 15.2106C28.8575 15.4001 29 15.6914 29 16V27.5C29 28.3284 28.3284 29 27.5 29H22V21C22 20.4477 21.5523 20 21 20H17C16.4477 20 16 20.4477 16 21V29H10.5C9.67157 29 9 28.3284 9 27.5V16C9 15.6914 9.14247 15.4001 9.38606 15.2106L18.3861 8.21065Z" fill="url(#paint2_linear_90_5544)"/>
<defs>
<linearGradient id="paint0_linear_90_5544" x1="2.44554" y1="5.34375" x2="38.9007" y2="8.31018" gradientUnits="userSpaceOnUse">
<stop stop-color="#006F68"/>
<stop offset="1" stop-color="#13B623"/>
</linearGradient>
<linearGradient id="paint1_linear_90_5544" x1="19" y1="0" x2="19" y2="38" gradientUnits="userSpaceOnUse">
<stop stop-color="white"/>
<stop offset="1" stop-color="white" stop-opacity="0"/>
</linearGradient>
<linearGradient id="paint2_linear_90_5544" x1="20.0781" y1="8" x2="20.0781" y2="29" gradientUnits="userSpaceOnUse">
<stop stop-color="white"/>
<stop offset="1" stop-color="#E2E9EC"/>
</linearGradient>
</defs>
</svg>
