<svg width="187" height="64" viewBox="0 0 187 64" fill="none" xmlns="http://www.w3.org/2000/svg">
<g filter="url(#filter0_i_5_1250)">
<rect width="187" height="64" rx="32" fill="url(#paint0_linear_5_1250)"/>
<path d="M76.6137 25C78.067 25 79.2803 25.46 80.2537 26.38C81.227 27.2867 81.7137 28.5 81.7137 30.02C81.7137 31.54 81.227 32.76 80.2537 33.68C79.2803 34.5867 78.067 35.04 76.6137 35.04H75.0137V39H71.0137V25H76.6137ZM76.6137 31.16C76.9203 31.16 77.1803 31.06 77.3937 30.86C77.607 30.6467 77.7137 30.3667 77.7137 30.02C77.7137 29.6733 77.607 29.4 77.3937 29.2C77.1803 28.9867 76.9203 28.88 76.6137 28.88H75.0137V31.16H76.6137ZM86.9082 35.12H91.5082V39H82.9082V25H86.9082V35.12ZM101.204 39L100.724 37.2H96.6835L96.2035 39H91.9035L96.3635 25H101.044L105.504 39H101.204ZM97.5435 34H99.8635L98.7035 29.7L97.5435 34ZM116.99 25L112.25 33.68V39H108.25V33.68L103.51 25H107.95L110.25 29.92L112.55 25H116.99Z" fill="white"/>
</g>
<defs>
<filter id="filter0_i_5_1250" x="0" y="0" width="187" height="64" filterUnits="userSpaceOnUse" color-interpolation-filters="sRGB">
<feFlood flood-opacity="0" result="BackgroundImageFix"/>
<feBlend mode="normal" in="SourceGraphic" in2="BackgroundImageFix" result="shape"/>
<feColorMatrix in="SourceAlpha" type="matrix" values="0 0 0 0 0 0 0 0 0 0 0 0 0 0 0 0 0 0 127 0" result="hardAlpha"/>
<feOffset/>
<feGaussianBlur stdDeviation="15.5"/>
<feComposite in2="hardAlpha" operator="arithmetic" k2="-1" k3="1"/>
<feColorMatrix type="matrix" values="0 0 0 0 0.148341 0 0 0 0 0.0103056 0 0 0 0 0.441667 0 0 0 1 0"/>
<feBlend mode="normal" in2="shape" result="effect1_innerShadow_5_1250"/>
</filter>
<linearGradient id="paint0_linear_5_1250" x1="12.0347" y1="9" x2="182.958" y2="49.6386" gradientUnits="userSpaceOnUse">
<stop stop-color="#C100AD"/>
<stop offset="1" stop-color="#4DC1C8"/>
</linearGradient>
</defs>
</svg>
