<svg width="26" height="15" viewBox="0 0 26 15" fill="none" xmlns="http://www.w3.org/2000/svg">
<path d="M0 6.31302C0 3.08877 3.00666 0.707449 6.1452 1.44593L9.31441 2.19163C11.5739 2.72328 13.926 2.72328 16.1856 2.19163L19.3548 1.44593C22.4933 0.707451 25.5 3.08877 25.5 6.31301V10C25.5 12.7614 23.2614 15 20.5 15H5C2.23858 15 0 12.7614 0 10V6.31302Z" fill="#31DC6B"/>
<path d="M11.4733 11.32C11.0733 11.848 10.5159 12.112 9.80125 12.112C9.08658 12.112 8.52658 11.848 8.12125 11.32C7.72125 10.7867 7.52125 10.08 7.52125 9.2C7.52125 8.32 7.72125 7.616 8.12125 7.088C8.52658 6.55467 9.08658 6.288 9.80125 6.288C10.5159 6.288 11.0733 6.55467 11.4733 7.088C11.8786 7.616 12.0813 8.32 12.0813 9.2C12.0813 10.08 11.8786 10.7867 11.4733 11.32ZM8.80125 9.2C8.80125 10.3093 9.13458 10.864 9.80125 10.864C10.4679 10.864 10.8013 10.3093 10.8013 9.2C10.8013 8.09067 10.4679 7.536 9.80125 7.536C9.13458 7.536 8.80125 8.09067 8.80125 9.2ZM13.7341 11.888C13.5848 12.0373 13.4061 12.112 13.1981 12.112C12.9901 12.112 12.8115 12.0373 12.6621 11.888C12.5128 11.7387 12.4381 11.56 12.4381 11.352C12.4381 11.144 12.5128 10.9653 12.6621 10.816C12.8115 10.6667 12.9901 10.592 13.1981 10.592C13.4061 10.592 13.5848 10.6667 13.7341 10.816C13.8835 10.9653 13.9581 11.144 13.9581 11.352C13.9581 11.56 13.8835 11.7387 13.7341 11.888ZM16.6003 8.368C17.1496 8.368 17.6056 8.53334 17.9683 8.864C18.3363 9.18934 18.5203 9.648 18.5203 10.24C18.5203 10.8267 18.323 11.2853 17.9283 11.616C17.5336 11.9467 17.051 12.112 16.4803 12.112C16.0163 12.112 15.6083 12.0133 15.2563 11.816C14.9043 11.6133 14.6456 11.312 14.4803 10.912L15.5843 10.272C15.723 10.6667 16.0216 10.864 16.4803 10.864C16.731 10.864 16.9203 10.8053 17.0483 10.688C17.1763 10.5707 17.2403 10.4213 17.2403 10.24C17.2403 10.0587 17.179 9.90934 17.0563 9.792C16.9336 9.67467 16.755 9.616 16.5203 9.616H14.7683L15.0003 6.4H18.2403V7.6H16.2003L16.1443 8.368H16.6003Z" fill="white"/>
</svg>
