<svg width="38" height="38" viewBox="0 0 38 38" fill="none" xmlns="http://www.w3.org/2000/svg">
<g filter="url(#filter0_i_90_5542)">
<rect width="38" height="38" rx="19" fill="url(#paint0_linear_90_5542)"/>
<rect x="1" y="1" width="36" height="36" rx="18" stroke="#727272" stroke-opacity="0.4" stroke-width="2"/>
<path d="M18.3861 8.21065C18.7472 7.92978 19.2528 7.92978 19.6139 8.21065L28.6139 15.2106C28.8575 15.4001 29 15.6914 29 16V27.5C29 28.3284 28.3284 29 27.5 29H22V21C22 20.4477 21.5523 20 21 20H17C16.4477 20 16 20.4477 16 21V29H10.5C9.67157 29 9 28.3284 9 27.5V16C9 15.6914 9.14247 15.4001 9.38606 15.2106L18.3861 8.21065Z" fill="url(#paint1_linear_90_5542)"/>
</g>
<defs>
<filter id="filter0_i_90_5542" x="0" y="0" width="38" height="38" filterUnits="userSpaceOnUse" color-interpolation-filters="sRGB">
<feFlood flood-opacity="0" result="BackgroundImageFix"/>
<feBlend mode="normal" in="SourceGraphic" in2="BackgroundImageFix" result="shape"/>
<feColorMatrix in="SourceAlpha" type="matrix" values="0 0 0 0 0 0 0 0 0 0 0 0 0 0 0 0 0 0 127 0" result="hardAlpha"/>
<feOffset/>
<feGaussianBlur stdDeviation="5.05"/>
<feComposite in2="hardAlpha" operator="arithmetic" k2="-1" k3="1"/>
<feColorMatrix type="matrix" values="0 0 0 0 0.763537 0 0 0 0 0.33245 0 0 0 0 0.915 0 0 0 1 0"/>
<feBlend mode="normal" in2="shape" result="effect1_innerShadow_90_5542"/>
</filter>
<linearGradient id="paint0_linear_90_5542" x1="21.0483" y1="6.05628e-07" x2="21.0483" y2="38" gradientUnits="userSpaceOnUse">
<stop stop-color="white"/>
<stop offset="1" stop-color="#E2E9EC"/>
</linearGradient>
<linearGradient id="paint1_linear_90_5542" x1="10.2871" y1="10.9531" x2="29.4858" y2="12.441" gradientUnits="userSpaceOnUse">
<stop stop-color="#C100AD"/>
<stop offset="1" stop-color="#4DC1C8"/>
</linearGradient>
</defs>
</svg>
