<svg width="375" height="196" viewBox="0 0 375 196" fill="none" xmlns="http://www.w3.org/2000/svg">
<ellipse cx="85.1167" cy="5.80051" rx="4.61011" ry="4.60309" fill="white"/>
<path d="M89.2268 5.80051C89.2268 8.06586 87.3874 9.9036 85.1167 9.9036C82.8461 9.9036 81.0066 8.06586 81.0066 5.80051C81.0066 3.53515 82.8461 1.69742 85.1167 1.69742C87.3874 1.69742 89.2268 3.53515 89.2268 5.80051Z" stroke="black" stroke-opacity="0.3"/>
<ellipse cx="125.87" cy="5.80051" rx="4.6101" ry="4.60309" fill="white"/>
<path d="M129.98 5.80051C129.98 8.06586 128.141 9.9036 125.87 9.9036C123.599 9.9036 121.76 8.06586 121.76 5.80051C121.76 3.53515 123.599 1.69742 125.87 1.69742C128.141 1.69742 129.98 3.53515 129.98 5.80051Z" stroke="black" stroke-opacity="0.3"/>
<ellipse cx="166.623" cy="5.80051" rx="4.61011" ry="4.60309" fill="white"/>
<path d="M170.733 5.80051C170.733 8.06586 168.894 9.9036 166.623 9.9036C164.353 9.9036 162.513 8.06586 162.513 5.80051C162.513 3.53515 164.353 1.69742 166.623 1.69742C168.894 1.69742 170.733 3.53515 170.733 5.80051Z" stroke="black" stroke-opacity="0.3"/>
<ellipse cx="207.377" cy="5.80051" rx="4.61011" ry="4.60309" fill="white"/>
<path d="M211.487 5.80051C211.487 8.06586 209.647 9.9036 207.377 9.9036C205.106 9.9036 203.267 8.06586 203.267 5.80051C203.267 3.53515 205.106 1.69742 207.377 1.69742C209.647 1.69742 211.487 3.53515 211.487 5.80051Z" stroke="black" stroke-opacity="0.3"/>
<ellipse cx="248.13" cy="5.80051" rx="4.61011" ry="4.60309" fill="white"/>
<path d="M252.24 5.80051C252.24 8.06586 250.401 9.9036 248.13 9.9036C245.859 9.9036 244.02 8.06586 244.02 5.80051C244.02 3.53515 245.859 1.69742 248.13 1.69742C250.401 1.69742 252.24 3.53515 252.24 5.80051Z" stroke="black" stroke-opacity="0.3"/>
<ellipse cx="288.883" cy="5.80051" rx="4.61011" ry="4.60309" fill="white"/>
<path d="M292.993 5.80051C292.993 8.06586 291.154 9.9036 288.883 9.9036C286.613 9.9036 284.773 8.06586 284.773 5.80051C284.773 3.53515 286.613 1.69742 288.883 1.69742C291.154 1.69742 292.993 3.53515 292.993 5.80051Z" stroke="black" stroke-opacity="0.3"/>
<ellipse cx="64.7401" cy="52.1996" rx="4.6101" ry="4.60309" fill="white"/>
<path d="M68.8502 52.1996C68.8502 54.465 67.0108 56.3027 64.7401 56.3027C62.4695 56.3027 60.63 54.465 60.63 52.1996C60.63 49.9343 62.4695 48.0966 64.7401 48.0966C67.0108 48.0966 68.8502 49.9343 68.8502 52.1996Z" stroke="black" stroke-opacity="0.3"/>
<ellipse cx="105.493" cy="52.1996" rx="4.6101" ry="4.60309" fill="white"/>
<path d="M109.603 52.1996C109.603 54.465 107.764 56.3027 105.493 56.3027C103.223 56.3027 101.383 54.465 101.383 52.1996C101.383 49.9343 103.223 48.0966 105.493 48.0966C107.764 48.0966 109.603 49.9343 109.603 52.1996Z" stroke="black" stroke-opacity="0.3"/>
<ellipse cx="146.247" cy="52.1996" rx="4.61011" ry="4.60309" fill="white"/>
<path d="M150.357 52.1996C150.357 54.465 148.517 56.3027 146.247 56.3027C143.976 56.3027 142.137 54.465 142.137 52.1996C142.137 49.9343 143.976 48.0966 146.247 48.0966C148.517 48.0966 150.357 49.9343 150.357 52.1996Z" stroke="black" stroke-opacity="0.3"/>
<ellipse cx="187" cy="52.1996" rx="4.61011" ry="4.60309" fill="white"/>
<path d="M191.11 52.1996C191.11 54.465 189.271 56.3027 187 56.3027C184.729 56.3027 182.89 54.465 182.89 52.1996C182.89 49.9343 184.729 48.0966 187 48.0966C189.271 48.0966 191.11 49.9343 191.11 52.1996Z" stroke="black" stroke-opacity="0.3"/>
<ellipse cx="227.753" cy="52.1996" rx="4.6101" ry="4.60309" fill="white"/>
<path d="M231.863 52.1996C231.863 54.465 230.024 56.3027 227.753 56.3027C225.483 56.3027 223.643 54.465 223.643 52.1996C223.643 49.9343 225.483 48.0966 227.753 48.0966C230.024 48.0966 231.863 49.9343 231.863 52.1996Z" stroke="black" stroke-opacity="0.3"/>
<ellipse cx="268.507" cy="52.1996" rx="4.6101" ry="4.60309" fill="white"/>
<path d="M272.617 52.1996C272.617 54.465 270.777 56.3027 268.507 56.3027C266.236 56.3027 264.397 54.465 264.397 52.1996C264.397 49.9343 266.236 48.0966 268.507 48.0966C270.777 48.0966 272.617 49.9343 272.617 52.1996Z" stroke="black" stroke-opacity="0.3"/>
<ellipse cx="309.26" cy="52.1996" rx="4.61011" ry="4.60309" fill="white"/>
<path d="M313.37 52.1996C313.37 54.465 311.531 56.3027 309.26 56.3027C306.989 56.3027 305.15 54.465 305.15 52.1996C305.15 49.9343 306.989 48.0966 309.26 48.0966C311.531 48.0966 313.37 49.9343 313.37 52.1996Z" stroke="black" stroke-opacity="0.3"/>
<ellipse cx="44.3634" cy="98.5987" rx="4.6101" ry="4.60308" fill="white"/>
<path d="M48.4735 98.5987C48.4735 100.864 46.634 102.702 44.3634 102.702C42.0927 102.702 40.2533 100.864 40.2533 98.5987C40.2533 96.3333 42.0927 94.4956 44.3634 94.4956C46.634 94.4956 48.4735 96.3333 48.4735 98.5987Z" stroke="black" stroke-opacity="0.3"/>
<ellipse cx="85.1167" cy="98.5987" rx="4.61011" ry="4.60308" fill="white"/>
<path d="M89.2268 98.5987C89.2268 100.864 87.3874 102.702 85.1167 102.702C82.8461 102.702 81.0066 100.864 81.0066 98.5987C81.0066 96.3333 82.8461 94.4956 85.1167 94.4956C87.3874 94.4956 89.2268 96.3333 89.2268 98.5987Z" stroke="black" stroke-opacity="0.3"/>
<ellipse cx="125.87" cy="98.5987" rx="4.6101" ry="4.60308" fill="white"/>
<path d="M129.98 98.5987C129.98 100.864 128.141 102.702 125.87 102.702C123.599 102.702 121.76 100.864 121.76 98.5987C121.76 96.3333 123.599 94.4956 125.87 94.4956C128.141 94.4956 129.98 96.3333 129.98 98.5987Z" stroke="black" stroke-opacity="0.3"/>
<ellipse cx="166.623" cy="98.5987" rx="4.61011" ry="4.60308" fill="white"/>
<path d="M170.733 98.5987C170.733 100.864 168.894 102.702 166.623 102.702C164.353 102.702 162.513 100.864 162.513 98.5987C162.513 96.3333 164.353 94.4956 166.623 94.4956C168.894 94.4956 170.733 96.3333 170.733 98.5987Z" stroke="black" stroke-opacity="0.3"/>
<ellipse cx="207.377" cy="98.5987" rx="4.61011" ry="4.60308" fill="white"/>
<path d="M211.487 98.5987C211.487 100.864 209.647 102.702 207.377 102.702C205.106 102.702 203.267 100.864 203.267 98.5987C203.267 96.3333 205.106 94.4956 207.377 94.4956C209.647 94.4956 211.487 96.3333 211.487 98.5987Z" stroke="black" stroke-opacity="0.3"/>
<ellipse cx="248.13" cy="98.5987" rx="4.61011" ry="4.60308" fill="white"/>
<path d="M252.24 98.5987C252.24 100.864 250.401 102.702 248.13 102.702C245.859 102.702 244.02 100.864 244.02 98.5987C244.02 96.3333 245.859 94.4956 248.13 94.4956C250.401 94.4956 252.24 96.3333 252.24 98.5987Z" stroke="black" stroke-opacity="0.3"/>
<ellipse cx="288.883" cy="98.5987" rx="4.61011" ry="4.60308" fill="white"/>
<path d="M292.993 98.5987C292.993 100.864 291.154 102.702 288.883 102.702C286.613 102.702 284.773 100.864 284.773 98.5987C284.773 96.3333 286.613 94.4956 288.883 94.4956C291.154 94.4956 292.993 96.3333 292.993 98.5987Z" stroke="black" stroke-opacity="0.3"/>
<ellipse cx="329.637" cy="98.5987" rx="4.6101" ry="4.60308" fill="white"/>
<path d="M333.747 98.5987C333.747 100.864 331.907 102.702 329.637 102.702C327.366 102.702 325.527 100.864 325.527 98.5987C325.527 96.3333 327.366 94.4956 329.637 94.4956C331.907 94.4956 333.747 96.3333 333.747 98.5987Z" stroke="black" stroke-opacity="0.3"/>
<ellipse cx="23.9867" cy="144.998" rx="4.6101" ry="4.60309" fill="white"/>
<path d="M28.0968 144.998C28.0968 147.263 26.2574 149.101 23.9867 149.101C21.7161 149.101 19.8766 147.263 19.8766 144.998C19.8766 142.732 21.7161 140.895 23.9867 140.895C26.2574 140.895 28.0968 142.732 28.0968 144.998Z" stroke="black" stroke-opacity="0.3"/>
<ellipse cx="64.7401" cy="144.998" rx="4.6101" ry="4.60309" fill="white"/>
<path d="M68.8502 144.998C68.8502 147.263 67.0108 149.101 64.7401 149.101C62.4695 149.101 60.63 147.263 60.63 144.998C60.63 142.732 62.4695 140.895 64.7401 140.895C67.0108 140.895 68.8502 142.732 68.8502 144.998Z" stroke="black" stroke-opacity="0.3"/>
<ellipse cx="105.493" cy="144.998" rx="4.6101" ry="4.60309" fill="white"/>
<path d="M109.603 144.998C109.603 147.263 107.764 149.101 105.493 149.101C103.223 149.101 101.383 147.263 101.383 144.998C101.383 142.732 103.223 140.895 105.493 140.895C107.764 140.895 109.603 142.732 109.603 144.998Z" stroke="black" stroke-opacity="0.3"/>
<ellipse cx="146.247" cy="144.998" rx="4.61011" ry="4.60309" fill="white"/>
<path d="M150.357 144.998C150.357 147.263 148.517 149.101 146.247 149.101C143.976 149.101 142.137 147.263 142.137 144.998C142.137 142.732 143.976 140.895 146.247 140.895C148.517 140.895 150.357 142.732 150.357 144.998Z" stroke="black" stroke-opacity="0.3"/>
<ellipse cx="187" cy="144.998" rx="4.61011" ry="4.60309" fill="white"/>
<path d="M191.11 144.998C191.11 147.263 189.271 149.101 187 149.101C184.729 149.101 182.89 147.263 182.89 144.998C182.89 142.732 184.729 140.895 187 140.895C189.271 140.895 191.11 142.732 191.11 144.998Z" stroke="black" stroke-opacity="0.3"/>
<ellipse cx="227.753" cy="144.998" rx="4.6101" ry="4.60309" fill="white"/>
<path d="M231.863 144.998C231.863 147.263 230.024 149.101 227.753 149.101C225.483 149.101 223.643 147.263 223.643 144.998C223.643 142.732 225.483 140.895 227.753 140.895C230.024 140.895 231.863 142.732 231.863 144.998Z" stroke="black" stroke-opacity="0.3"/>
<ellipse cx="268.507" cy="144.998" rx="4.6101" ry="4.60309" fill="white"/>
<path d="M272.617 144.998C272.617 147.263 270.777 149.101 268.507 149.101C266.236 149.101 264.397 147.263 264.397 144.998C264.397 142.732 266.236 140.895 268.507 140.895C270.777 140.895 272.617 142.732 272.617 144.998Z" stroke="black" stroke-opacity="0.3"/>
<ellipse cx="309.26" cy="144.998" rx="4.61011" ry="4.60309" fill="white"/>
<path d="M313.37 144.998C313.37 147.263 311.531 149.101 309.26 149.101C306.989 149.101 305.15 147.263 305.15 144.998C305.15 142.732 306.989 140.895 309.26 140.895C311.531 140.895 313.37 142.732 313.37 144.998Z" stroke="black" stroke-opacity="0.3"/>
<ellipse cx="350.013" cy="144.998" rx="4.61011" ry="4.60309" fill="white"/>
<path d="M354.123 144.998C354.123 147.263 352.284 149.101 350.013 149.101C347.743 149.101 345.903 147.263 345.903 144.998C345.903 142.732 347.743 140.895 350.013 140.895C352.284 140.895 354.123 142.732 354.123 144.998Z" stroke="black" stroke-opacity="0.3"/>
<ellipse cx="3.6101" cy="191.397" rx="4.6101" ry="4.60308" fill="white"/>
<path d="M7.72021 191.397C7.72021 193.662 5.88077 195.5 3.6101 195.5C1.33944 195.5 -0.5 193.662 -0.5 191.397C-0.5 189.132 1.33944 187.294 3.6101 187.294C5.88077 187.294 7.72021 189.132 7.72021 191.397Z" stroke="black" stroke-opacity="0.3"/>
<ellipse cx="44.3634" cy="191.397" rx="4.6101" ry="4.60308" fill="white"/>
<path d="M48.4735 191.397C48.4735 193.662 46.634 195.5 44.3634 195.5C42.0927 195.5 40.2533 193.662 40.2533 191.397C40.2533 189.132 42.0927 187.294 44.3634 187.294C46.634 187.294 48.4735 189.132 48.4735 191.397Z" stroke="black" stroke-opacity="0.3"/>
<ellipse cx="85.1167" cy="191.397" rx="4.61011" ry="4.60308" fill="white"/>
<path d="M89.2268 191.397C89.2268 193.662 87.3874 195.5 85.1167 195.5C82.8461 195.5 81.0066 193.662 81.0066 191.397C81.0066 189.132 82.8461 187.294 85.1167 187.294C87.3874 187.294 89.2268 189.132 89.2268 191.397Z" stroke="black" stroke-opacity="0.3"/>
<ellipse cx="125.87" cy="191.397" rx="4.6101" ry="4.60308" fill="white"/>
<path d="M129.98 191.397C129.98 193.662 128.141 195.5 125.87 195.5C123.599 195.5 121.76 193.662 121.76 191.397C121.76 189.132 123.599 187.294 125.87 187.294C128.141 187.294 129.98 189.132 129.98 191.397Z" stroke="black" stroke-opacity="0.3"/>
<ellipse cx="166.623" cy="191.397" rx="4.61011" ry="4.60308" fill="white"/>
<path d="M170.733 191.397C170.733 193.662 168.894 195.5 166.623 195.5C164.353 195.5 162.513 193.662 162.513 191.397C162.513 189.132 164.353 187.294 166.623 187.294C168.894 187.294 170.733 189.132 170.733 191.397Z" stroke="black" stroke-opacity="0.3"/>
<ellipse cx="207.377" cy="191.397" rx="4.61011" ry="4.60308" fill="white"/>
<path d="M211.487 191.397C211.487 193.662 209.647 195.5 207.377 195.5C205.106 195.5 203.267 193.662 203.267 191.397C203.267 189.132 205.106 187.294 207.377 187.294C209.647 187.294 211.487 189.132 211.487 191.397Z" stroke="black" stroke-opacity="0.3"/>
<ellipse cx="248.13" cy="191.397" rx="4.61011" ry="4.60308" fill="white"/>
<path d="M252.24 191.397C252.24 193.662 250.401 195.5 248.13 195.5C245.859 195.5 244.02 193.662 244.02 191.397C244.02 189.132 245.859 187.294 248.13 187.294C250.401 187.294 252.24 189.132 252.24 191.397Z" stroke="black" stroke-opacity="0.3"/>
<ellipse cx="288.883" cy="191.397" rx="4.61011" ry="4.60308" fill="white"/>
<path d="M292.993 191.397C292.993 193.662 291.154 195.5 288.883 195.5C286.613 195.5 284.773 193.662 284.773 191.397C284.773 189.132 286.613 187.294 288.883 187.294C291.154 187.294 292.993 189.132 292.993 191.397Z" stroke="black" stroke-opacity="0.3"/>
<ellipse cx="329.637" cy="191.397" rx="4.6101" ry="4.60308" fill="white"/>
<path d="M333.747 191.397C333.747 193.662 331.907 195.5 329.637 195.5C327.366 195.5 325.527 193.662 325.527 191.397C325.527 189.132 327.366 187.294 329.637 187.294C331.907 187.294 333.747 189.132 333.747 191.397Z" stroke="black" stroke-opacity="0.3"/>
<ellipse cx="370.39" cy="191.397" rx="4.6101" ry="4.60308" fill="white"/>
<path d="M374.5 191.397C374.5 193.662 372.661 195.5 370.39 195.5C368.119 195.5 366.28 193.662 366.28 191.397C366.28 189.132 368.119 187.294 370.39 187.294C372.661 187.294 374.5 189.132 374.5 191.397Z" stroke="black" stroke-opacity="0.3"/>
</svg>
