<svg width="65" height="42" viewBox="0 0 65 42" fill="none" xmlns="http://www.w3.org/2000/svg">
<path d="M9.57364 0H60C62.7614 0 65 2.23858 65 5V37C65 39.7614 62.7614 42 60 42H9.57364L0 21L9.57364 0Z" fill="url(#paint0_linear_83_8080)"/>
<path d="M36.2925 20.134C38.0685 20.134 39.3765 20.488 40.2165 21.196C41.0685 21.904 41.4945 22.852 41.4945 24.04C41.4945 24.808 41.3025 25.51 40.9185 26.146C40.5345 26.77 39.9465 27.274 39.1545 27.658C38.3745 28.03 37.4085 28.216 36.2565 28.216C35.3685 28.216 34.4925 28.102 33.6285 27.874C32.7765 27.634 32.0505 27.298 31.4505 26.866L32.6025 24.634C33.0825 24.994 33.6345 25.276 34.2585 25.48C34.8825 25.672 35.5245 25.768 36.1845 25.768C36.9165 25.768 37.4925 25.624 37.9125 25.336C38.3325 25.048 38.5425 24.646 38.5425 24.13C38.5425 23.59 38.3205 23.182 37.8765 22.906C37.4445 22.63 36.6885 22.492 35.6085 22.492H32.3865L33.0345 15.4H40.7205V17.74H35.4645L35.2665 20.134H36.2925ZM47.3216 12.844H49.8236L43.8836 29.8H41.3816L47.3216 12.844ZM54.0464 20.134C55.8224 20.134 57.1304 20.488 57.9704 21.196C58.8224 21.904 59.2484 22.852 59.2484 24.04C59.2484 24.808 59.0564 25.51 58.6724 26.146C58.2884 26.77 57.7004 27.274 56.9084 27.658C56.1284 28.03 55.1624 28.216 54.0104 28.216C53.1224 28.216 52.2464 28.102 51.3824 27.874C50.5304 27.634 49.8044 27.298 49.2044 26.866L50.3564 24.634C50.8364 24.994 51.3884 25.276 52.0124 25.48C52.6364 25.672 53.2784 25.768 53.9384 25.768C54.6704 25.768 55.2464 25.624 55.6664 25.336C56.0864 25.048 56.2964 24.646 56.2964 24.13C56.2964 23.59 56.0744 23.182 55.6304 22.906C55.1984 22.63 54.4424 22.492 53.3624 22.492H50.1404L50.7884 15.4H58.4744V17.74H53.2184L53.0204 20.134H54.0464Z" fill="white"/>
<defs>
<linearGradient id="paint0_linear_83_8080" x1="4.18317" y1="5.90625" x2="65.9736" y2="13.6877" gradientUnits="userSpaceOnUse">
<stop stop-color="#FF852D"/>
<stop offset="1" stop-color="#BC4B1B"/>
</linearGradient>
</defs>
</svg>
