<svg width="65" height="42" viewBox="0 0 65 42" fill="none" xmlns="http://www.w3.org/2000/svg">
<path d="M55.4264 0H5C2.23857 0 0 2.23858 0 5V37C0 39.7614 2.23857 42 5 42H55.4264L65 21L55.4264 0Z" fill="url(#paint0_radial_83_7765)"/>
<path d="M7.95 9.68C8.14333 9.74333 8.29667 9.85 8.41 10C8.52333 10.1467 8.58 10.33 8.58 10.55C8.58 10.8533 8.46333 11.0883 8.23 11.255C7.99667 11.4183 7.65667 11.5 7.21 11.5H5.47V8H7.11C7.52333 8 7.84167 8.08167 8.065 8.245C8.28833 8.405 8.4 8.62667 8.4 8.91C8.4 9.08333 8.36 9.23667 8.28 9.37C8.2 9.50333 8.09 9.60667 7.95 9.68ZM6.12 8.51V9.475H7.04C7.26667 9.475 7.44 9.435 7.56 9.355C7.68333 9.27167 7.745 9.15167 7.745 8.995C7.745 8.835 7.68333 8.715 7.56 8.635C7.44 8.55167 7.26667 8.51 7.04 8.51H6.12ZM7.17 10.99C7.67333 10.99 7.925 10.8217 7.925 10.485C7.925 10.1483 7.67333 9.98 7.17 9.98H6.12V10.99H7.17ZM10.9087 11.55C10.552 11.55 10.2304 11.4733 9.94371 11.32C9.65704 11.1633 9.43204 10.9483 9.26871 10.675C9.10538 10.3983 9.02371 10.09 9.02371 9.75C9.02371 9.41 9.10538 9.10333 9.26871 8.83C9.43204 8.55333 9.65704 8.33833 9.94371 8.185C10.2304 8.02833 10.552 7.95 10.9087 7.95C11.2654 7.95 11.587 8.02833 11.8737 8.185C12.1604 8.33833 12.3854 8.55167 12.5487 8.825C12.712 9.09833 12.7937 9.40667 12.7937 9.75C12.7937 10.0933 12.712 10.4017 12.5487 10.675C12.3854 10.9483 12.1604 11.1633 11.8737 11.32C11.587 11.4733 11.2654 11.55 10.9087 11.55ZM10.9087 10.98C11.142 10.98 11.352 10.9283 11.5387 10.825C11.7254 10.7183 11.872 10.5717 11.9787 10.385C12.0854 10.195 12.1387 9.98333 12.1387 9.75C12.1387 9.51667 12.0854 9.30667 11.9787 9.12C11.872 8.93 11.7254 8.78333 11.5387 8.68C11.352 8.57333 11.142 8.52 10.9087 8.52C10.6754 8.52 10.4654 8.57333 10.2787 8.68C10.092 8.78333 9.94538 8.93 9.83871 9.12C9.73204 9.30667 9.67871 9.51667 9.67871 9.75C9.67871 9.98333 9.73204 10.195 9.83871 10.385C9.94538 10.5717 10.092 10.7183 10.2787 10.825C10.4654 10.9283 10.6754 10.98 10.9087 10.98ZM16.5927 8V11.5H16.0577L14.1277 9.13V11.5H13.4827V8H14.0177L15.9477 10.37V8H16.5927ZM19.0355 11.55C18.5522 11.55 18.1755 11.415 17.9055 11.145C17.6355 10.8717 17.5005 10.4817 17.5005 9.975V8H18.1505V9.95C18.1505 10.6367 18.4472 10.98 19.0405 10.98C19.6305 10.98 19.9255 10.6367 19.9255 9.95V8H20.5655V9.975C20.5655 10.4817 20.4305 10.8717 20.1605 11.145C19.8939 11.415 19.5189 11.55 19.0355 11.55ZM22.5609 11.55C22.2909 11.55 22.0292 11.5117 21.7759 11.435C21.5259 11.3583 21.3275 11.2567 21.1809 11.13L21.4059 10.625C21.5492 10.7383 21.7242 10.8317 21.9309 10.905C22.1409 10.975 22.3509 11.01 22.5609 11.01C22.8209 11.01 23.0142 10.9683 23.1409 10.885C23.2709 10.8017 23.3359 10.6917 23.3359 10.555C23.3359 10.455 23.2992 10.3733 23.2259 10.31C23.1559 10.2433 23.0659 10.1917 22.9559 10.155C22.8459 10.1183 22.6959 10.0767 22.5059 10.03C22.2392 9.96667 22.0225 9.90333 21.8559 9.84C21.6925 9.77667 21.5509 9.67833 21.4309 9.545C21.3142 9.40833 21.2559 9.225 21.2559 8.995C21.2559 8.80167 21.3075 8.62667 21.4109 8.47C21.5175 8.31 21.6759 8.18333 21.8859 8.09C22.0992 7.99667 22.3592 7.95 22.6659 7.95C22.8792 7.95 23.0892 7.97667 23.2959 8.03C23.5025 8.08333 23.6809 8.16 23.8309 8.26L23.6259 8.765C23.4725 8.675 23.3125 8.60667 23.1459 8.56C22.9792 8.51333 22.8175 8.49 22.6609 8.49C22.4042 8.49 22.2125 8.53333 22.0859 8.62C21.9625 8.70667 21.9009 8.82167 21.9009 8.965C21.9009 9.065 21.9359 9.14667 22.0059 9.21C22.0792 9.27333 22.1709 9.32333 22.2809 9.36C22.3909 9.39667 22.5409 9.43833 22.7309 9.485C22.9909 9.545 23.2042 9.60833 23.3709 9.675C23.5375 9.73833 23.6792 9.83667 23.7959 9.97C23.9159 10.1033 23.9759 10.2833 23.9759 10.51C23.9759 10.7033 23.9225 10.8783 23.8159 11.035C23.7125 11.1917 23.5542 11.3167 23.3409 11.41C23.1275 11.5033 22.8675 11.55 22.5609 11.55ZM7.86 14.71H8.475V16.105C8.295 16.2483 8.085 16.3583 7.845 16.435C7.605 16.5117 7.35833 16.55 7.105 16.55C6.74833 16.55 6.42667 16.4733 6.14 16.32C5.85333 16.1633 5.62833 15.9483 5.465 15.675C5.30167 15.4017 5.22 15.0933 5.22 14.75C5.22 14.4067 5.30167 14.0983 5.465 13.825C5.62833 13.5517 5.85333 13.3383 6.14 13.185C6.43 13.0283 6.755 12.95 7.115 12.95C7.40833 12.95 7.675 12.9983 7.915 13.095C8.155 13.1917 8.35667 13.3333 8.52 13.52L8.11 13.92C7.84333 13.6533 7.52167 13.52 7.145 13.52C6.89833 13.52 6.67833 13.5717 6.485 13.675C6.295 13.7783 6.145 13.9233 6.035 14.11C5.92833 14.2967 5.875 14.51 5.875 14.75C5.875 14.9833 5.92833 15.1933 6.035 15.38C6.145 15.5667 6.295 15.7133 6.485 15.82C6.67833 15.9267 6.89667 15.98 7.14 15.98C7.41333 15.98 7.65333 15.92 7.86 15.8V14.71ZM11.6023 15.69H9.8523L9.5073 16.5H8.8373L10.4123 13H11.0523L12.6323 16.5H11.9523L11.6023 15.69ZM11.3873 15.18L10.7273 13.65L10.0723 15.18H11.3873ZM16.2924 16.5L16.2874 14.18L15.1374 16.1H14.8474L13.6974 14.21V16.5H13.0774V13H13.6124L15.0024 15.32L16.3674 13H16.9024L16.9074 16.5H16.2924ZM20.4778 15.955V16.5H17.8528V13H20.4078V13.545H18.5028V14.455H20.1928V14.99H18.5028V15.955H20.4778Z" fill="white"/>
<path d="M10.2925 26.634C12.0685 26.634 13.3765 26.988 14.2165 27.696C15.0685 28.404 15.4945 29.352 15.4945 30.54C15.4945 31.308 15.3025 32.01 14.9185 32.646C14.5345 33.27 13.9465 33.774 13.1545 34.158C12.3745 34.53 11.4085 34.716 10.2565 34.716C9.36851 34.716 8.49251 34.602 7.62851 34.374C6.77651 34.134 6.05051 33.798 5.45051 33.366L6.60251 31.134C7.08251 31.494 7.63451 31.776 8.25851 31.98C8.88251 32.172 9.52451 32.268 10.1845 32.268C10.9165 32.268 11.4925 32.124 11.9125 31.836C12.3325 31.548 12.5425 31.146 12.5425 30.63C12.5425 30.09 12.3205 29.682 11.8765 29.406C11.4445 29.13 10.6885 28.992 9.60851 28.992H6.38651L7.03451 21.9H14.7205V24.24H9.46451L9.26651 26.634H10.2925ZM21.3216 19.344H23.8236L17.8836 36.3H15.3816L21.3216 19.344ZM28.0464 26.634C29.8224 26.634 31.1304 26.988 31.9704 27.696C32.8224 28.404 33.2484 29.352 33.2484 30.54C33.2484 31.308 33.0564 32.01 32.6724 32.646C32.2884 33.27 31.7004 33.774 30.9084 34.158C30.1284 34.53 29.1624 34.716 28.0104 34.716C27.1224 34.716 26.2464 34.602 25.3824 34.374C24.5304 34.134 23.8044 33.798 23.2044 33.366L24.3564 31.134C24.8364 31.494 25.3884 31.776 26.0124 31.98C26.6364 32.172 27.2784 32.268 27.9384 32.268C28.6704 32.268 29.2464 32.124 29.6664 31.836C30.0864 31.548 30.2964 31.146 30.2964 30.63C30.2964 30.09 30.0744 29.682 29.6304 29.406C29.1984 29.13 28.4424 28.992 27.3624 28.992H24.1404L24.7884 21.9H32.4744V24.24H27.2184L27.0204 26.634H28.0464Z" fill="white"/>
<defs>
<radialGradient id="paint0_radial_83_7765" cx="0" cy="0" r="1" gradientUnits="userSpaceOnUse" gradientTransform="translate(53.877 47.25) rotate(-136.351) scale(68.4543 73.4262)">
<stop offset="1" stop-color="#8A1177"/>
<stop stop-color="#D930C8"/>
</radialGradient>
</defs>
</svg>
