<svg width="38" height="32" viewBox="0 0 38 32" fill="none" xmlns="http://www.w3.org/2000/svg">
<path d="M28.5 0H5C2.23857 0 0 2.23858 0 5V27C0 29.7614 2.23857 32 5 32H33L38 21.3333L28.5 0Z" fill="url(#paint0_linear_83_7772)"/>
<path d="M7.36 8.544C7.51467 8.59467 7.63733 8.68 7.728 8.8C7.81867 8.91733 7.864 9.064 7.864 9.24C7.864 9.48267 7.77067 9.67067 7.584 9.804C7.39733 9.93467 7.12533 10 6.768 10H5.376V7.2H6.688C7.01867 7.2 7.27333 7.26533 7.452 7.396C7.63067 7.524 7.72 7.70133 7.72 7.928C7.72 8.06667 7.688 8.18933 7.624 8.296C7.56 8.40267 7.472 8.48533 7.36 8.544ZM5.896 7.608V8.38H6.632C6.81333 8.38 6.952 8.348 7.048 8.284C7.14667 8.21733 7.196 8.12133 7.196 7.996C7.196 7.868 7.14667 7.772 7.048 7.708C6.952 7.64133 6.81333 7.608 6.632 7.608H5.896ZM6.736 9.592C7.13867 9.592 7.34 9.45733 7.34 9.188C7.34 8.91867 7.13867 8.784 6.736 8.784H5.896V9.592H6.736ZM9.72697 10.04C9.44164 10.04 9.1843 9.97867 8.95497 9.856C8.72564 9.73067 8.54564 9.55867 8.41497 9.34C8.2843 9.11867 8.21897 8.872 8.21897 8.6C8.21897 8.328 8.2843 8.08267 8.41497 7.864C8.54564 7.64267 8.72564 7.47067 8.95497 7.348C9.1843 7.22267 9.44164 7.16 9.72697 7.16C10.0123 7.16 10.2696 7.22267 10.499 7.348C10.7283 7.47067 10.9083 7.64133 11.039 7.86C11.1696 8.07867 11.235 8.32533 11.235 8.6C11.235 8.87467 11.1696 9.12133 11.039 9.34C10.9083 9.55867 10.7283 9.73067 10.499 9.856C10.2696 9.97867 10.0123 10.04 9.72697 10.04ZM9.72697 9.584C9.91364 9.584 10.0816 9.54267 10.231 9.46C10.3803 9.37467 10.4976 9.25733 10.583 9.108C10.6683 8.956 10.711 8.78667 10.711 8.6C10.711 8.41333 10.6683 8.24533 10.583 8.096C10.4976 7.944 10.3803 7.82667 10.231 7.744C10.0816 7.65867 9.91364 7.616 9.72697 7.616C9.5403 7.616 9.3723 7.65867 9.22297 7.744C9.07364 7.82667 8.9563 7.944 8.87097 8.096C8.78564 8.24533 8.74297 8.41333 8.74297 8.6C8.74297 8.78667 8.78564 8.956 8.87097 9.108C8.9563 9.25733 9.07364 9.37467 9.22297 9.46C9.3723 9.54267 9.5403 9.584 9.72697 9.584ZM14.2742 7.2V10H13.8462L12.3022 8.104V10H11.7862V7.2H12.2142L13.7582 9.096V7.2H14.2742ZM16.2284 10.04C15.8418 10.04 15.5404 9.932 15.3244 9.716C15.1084 9.49733 15.0004 9.18533 15.0004 8.78V7.2H15.5204V8.76C15.5204 9.30933 15.7578 9.584 16.2324 9.584C16.7044 9.584 16.9404 9.30933 16.9404 8.76V7.2H17.4524V8.78C17.4524 9.18533 17.3444 9.49733 17.1284 9.716C16.9151 9.932 16.6151 10.04 16.2284 10.04ZM19.0487 10.04C18.8327 10.04 18.6234 10.0093 18.4207 9.948C18.2207 9.88667 18.062 9.80533 17.9447 9.704L18.1247 9.3C18.2394 9.39067 18.3794 9.46533 18.5447 9.524C18.7127 9.58 18.8807 9.608 19.0487 9.608C19.2567 9.608 19.4114 9.57467 19.5127 9.508C19.6167 9.44133 19.6687 9.35333 19.6687 9.244C19.6687 9.164 19.6394 9.09867 19.5807 9.048C19.5247 8.99467 19.4527 8.95333 19.3647 8.924C19.2767 8.89467 19.1567 8.86133 19.0047 8.824C18.7914 8.77333 18.618 8.72267 18.4847 8.672C18.354 8.62133 18.2407 8.54267 18.1447 8.436C18.0514 8.32667 18.0047 8.18 18.0047 7.996C18.0047 7.84133 18.046 7.70133 18.1287 7.576C18.214 7.448 18.3407 7.34667 18.5087 7.272C18.6794 7.19733 18.8874 7.16 19.1327 7.16C19.3034 7.16 19.4714 7.18133 19.6367 7.224C19.802 7.26667 19.9447 7.328 20.0647 7.408L19.9007 7.812C19.778 7.74 19.65 7.68533 19.5167 7.648C19.3834 7.61067 19.254 7.592 19.1287 7.592C18.9234 7.592 18.77 7.62667 18.6687 7.696C18.57 7.76533 18.5207 7.85733 18.5207 7.972C18.5207 8.052 18.5487 8.11733 18.6047 8.168C18.6634 8.21867 18.7367 8.25867 18.8247 8.288C18.9127 8.31733 19.0327 8.35067 19.1847 8.388C19.3927 8.436 19.5634 8.48667 19.6967 8.54C19.83 8.59067 19.9434 8.66933 20.0367 8.776C20.1327 8.88267 20.1807 9.02667 20.1807 9.208C20.1807 9.36267 20.138 9.50267 20.0527 9.628C19.97 9.75333 19.8434 9.85333 19.6727 9.928C19.502 10.0027 19.294 10.04 19.0487 10.04ZM7.288 12.568H7.78V13.684C7.636 13.7987 7.468 13.8867 7.276 13.948C7.084 14.0093 6.88667 14.04 6.684 14.04C6.39867 14.04 6.14133 13.9787 5.912 13.856C5.68267 13.7307 5.50267 13.5587 5.372 13.34C5.24133 13.1213 5.176 12.8747 5.176 12.6C5.176 12.3253 5.24133 12.0787 5.372 11.86C5.50267 11.6413 5.68267 11.4707 5.912 11.348C6.144 11.2227 6.404 11.16 6.692 11.16C6.92667 11.16 7.14 11.1987 7.332 11.276C7.524 11.3533 7.68533 11.4667 7.816 11.616L7.488 11.936C7.27467 11.7227 7.01733 11.616 6.716 11.616C6.51867 11.616 6.34267 11.6573 6.188 11.74C6.036 11.8227 5.916 11.9387 5.828 12.088C5.74267 12.2373 5.7 12.408 5.7 12.6C5.7 12.7867 5.74267 12.9547 5.828 13.104C5.916 13.2533 6.036 13.3707 6.188 13.456C6.34267 13.5413 6.51733 13.584 6.712 13.584C6.93067 13.584 7.12267 13.536 7.288 13.44V12.568ZM10.2818 13.352H8.88184L8.60584 14H8.06984L9.32984 11.2H9.84184L11.1058 14H10.5618L10.2818 13.352ZM10.1098 12.944L9.58184 11.72L9.05784 12.944H10.1098ZM14.0339 14L14.0299 12.144L13.1099 13.68H12.8779L11.9579 12.168V14H11.4619V11.2H11.8899L13.0019 13.056L14.0939 11.2H14.5219L14.5259 14H14.0339ZM17.3823 13.564V14H15.2823V11.2H17.3263V11.636H15.8023V12.364H17.1543V12.792H15.8023V13.564H17.3823Z" fill="white"/>
<path d="M8.39 26.12C7.81 26.12 7.29333 25.9767 6.84 25.69C6.38667 25.4033 6.03 24.99 5.77 24.45C5.51667 23.9033 5.39 23.2533 5.39 22.5C5.39 21.7467 5.51667 21.1 5.77 20.56C6.03 20.0133 6.38667 19.5967 6.84 19.31C7.29333 19.0233 7.81 18.88 8.39 18.88C8.97 18.88 9.48667 19.0233 9.94 19.31C10.3933 19.5967 10.7467 20.0133 11 20.56C11.26 21.1 11.39 21.7467 11.39 22.5C11.39 23.2533 11.26 23.9033 11 24.45C10.7467 24.99 10.3933 25.4033 9.94 25.69C9.48667 25.9767 8.97 26.12 8.39 26.12ZM8.39 24.75C8.81667 24.75 9.15 24.5667 9.39 24.2C9.63667 23.8333 9.76 23.2667 9.76 22.5C9.76 21.7333 9.63667 21.1667 9.39 20.8C9.15 20.4333 8.81667 20.25 8.39 20.25C7.97 20.25 7.63667 20.4333 7.39 20.8C7.15 21.1667 7.03 21.7333 7.03 22.5C7.03 23.2667 7.15 23.8333 7.39 24.2C7.63667 24.5667 7.97 24.75 8.39 24.75ZM14.5618 17.58H15.9518L12.6518 27H11.2618L14.5618 17.58ZM18.2978 21.63C19.2845 21.63 20.0111 21.8267 20.4778 22.22C20.9511 22.6133 21.1878 23.14 21.1878 23.8C21.1878 24.2267 21.0811 24.6167 20.8678 24.97C20.6545 25.3167 20.3278 25.5967 19.8878 25.81C19.4545 26.0167 18.9178 26.12 18.2778 26.12C17.7845 26.12 17.2978 26.0567 16.8178 25.93C16.3445 25.7967 15.9411 25.61 15.6078 25.37L16.2478 24.13C16.5145 24.33 16.8211 24.4867 17.1678 24.6C17.5145 24.7067 17.8711 24.76 18.2378 24.76C18.6445 24.76 18.9645 24.68 19.1978 24.52C19.4311 24.36 19.5478 24.1367 19.5478 23.85C19.5478 23.55 19.4245 23.3233 19.1778 23.17C18.9378 23.0167 18.5178 22.94 17.9178 22.94H16.1278L16.4878 19H20.7578V20.3H17.8378L17.7278 21.63H18.2978Z" fill="white"/>
<defs>
<linearGradient id="paint0_linear_83_7772" x1="35.5545" y1="4.5" x2="-0.802602" y2="8.01316" gradientUnits="userSpaceOnUse">
<stop stop-color="#C100AD"/>
<stop offset="1" stop-color="#4DC1C8"/>
</linearGradient>
</defs>
</svg>
