<svg width="47" height="36" viewBox="0 0 47 36" fill="none" xmlns="http://www.w3.org/2000/svg">
<path d="M38 0H5.5C2.73857 0 0.5 2.23858 0.5 5V31C0.5 33.7614 2.73857 36 5.5 36H40L47 20.5L38 0Z" fill="url(#paint0_linear_83_7770)"/>
<path d="M7.36 10.044C7.51467 10.0947 7.63733 10.18 7.728 10.3C7.81867 10.4173 7.864 10.564 7.864 10.74C7.864 10.9827 7.77067 11.1707 7.584 11.304C7.39733 11.4347 7.12533 11.5 6.768 11.5H5.376V8.7H6.688C7.01867 8.7 7.27333 8.76533 7.452 8.896C7.63067 9.024 7.72 9.20133 7.72 9.428C7.72 9.56667 7.688 9.68933 7.624 9.796C7.56 9.90267 7.472 9.98533 7.36 10.044ZM5.896 9.108V9.88H6.632C6.81333 9.88 6.952 9.848 7.048 9.784C7.14667 9.71733 7.196 9.62133 7.196 9.496C7.196 9.368 7.14667 9.272 7.048 9.208C6.952 9.14133 6.81333 9.108 6.632 9.108H5.896ZM6.736 11.092C7.13867 11.092 7.34 10.9573 7.34 10.688C7.34 10.4187 7.13867 10.284 6.736 10.284H5.896V11.092H6.736ZM9.72697 11.54C9.44164 11.54 9.1843 11.4787 8.95497 11.356C8.72564 11.2307 8.54564 11.0587 8.41497 10.84C8.2843 10.6187 8.21897 10.372 8.21897 10.1C8.21897 9.828 8.2843 9.58267 8.41497 9.364C8.54564 9.14267 8.72564 8.97067 8.95497 8.848C9.1843 8.72267 9.44164 8.66 9.72697 8.66C10.0123 8.66 10.2696 8.72267 10.499 8.848C10.7283 8.97067 10.9083 9.14133 11.039 9.36C11.1696 9.57867 11.235 9.82533 11.235 10.1C11.235 10.3747 11.1696 10.6213 11.039 10.84C10.9083 11.0587 10.7283 11.2307 10.499 11.356C10.2696 11.4787 10.0123 11.54 9.72697 11.54ZM9.72697 11.084C9.91364 11.084 10.0816 11.0427 10.231 10.96C10.3803 10.8747 10.4976 10.7573 10.583 10.608C10.6683 10.456 10.711 10.2867 10.711 10.1C10.711 9.91333 10.6683 9.74533 10.583 9.596C10.4976 9.444 10.3803 9.32667 10.231 9.244C10.0816 9.15867 9.91364 9.116 9.72697 9.116C9.5403 9.116 9.3723 9.15867 9.22297 9.244C9.07364 9.32667 8.9563 9.444 8.87097 9.596C8.78564 9.74533 8.74297 9.91333 8.74297 10.1C8.74297 10.2867 8.78564 10.456 8.87097 10.608C8.9563 10.7573 9.07364 10.8747 9.22297 10.96C9.3723 11.0427 9.5403 11.084 9.72697 11.084ZM14.2742 8.7V11.5H13.8462L12.3022 9.604V11.5H11.7862V8.7H12.2142L13.7582 10.596V8.7H14.2742ZM16.2284 11.54C15.8418 11.54 15.5404 11.432 15.3244 11.216C15.1084 10.9973 15.0004 10.6853 15.0004 10.28V8.7H15.5204V10.26C15.5204 10.8093 15.7578 11.084 16.2324 11.084C16.7044 11.084 16.9404 10.8093 16.9404 10.26V8.7H17.4524V10.28C17.4524 10.6853 17.3444 10.9973 17.1284 11.216C16.9151 11.432 16.6151 11.54 16.2284 11.54ZM19.0487 11.54C18.8327 11.54 18.6234 11.5093 18.4207 11.448C18.2207 11.3867 18.062 11.3053 17.9447 11.204L18.1247 10.8C18.2394 10.8907 18.3794 10.9653 18.5447 11.024C18.7127 11.08 18.8807 11.108 19.0487 11.108C19.2567 11.108 19.4114 11.0747 19.5127 11.008C19.6167 10.9413 19.6687 10.8533 19.6687 10.744C19.6687 10.664 19.6394 10.5987 19.5807 10.548C19.5247 10.4947 19.4527 10.4533 19.3647 10.424C19.2767 10.3947 19.1567 10.3613 19.0047 10.324C18.7914 10.2733 18.618 10.2227 18.4847 10.172C18.354 10.1213 18.2407 10.0427 18.1447 9.936C18.0514 9.82667 18.0047 9.68 18.0047 9.496C18.0047 9.34133 18.046 9.20133 18.1287 9.076C18.214 8.948 18.3407 8.84667 18.5087 8.772C18.6794 8.69733 18.8874 8.66 19.1327 8.66C19.3034 8.66 19.4714 8.68133 19.6367 8.724C19.802 8.76667 19.9447 8.828 20.0647 8.908L19.9007 9.312C19.778 9.24 19.65 9.18533 19.5167 9.148C19.3834 9.11067 19.254 9.092 19.1287 9.092C18.9234 9.092 18.77 9.12667 18.6687 9.196C18.57 9.26533 18.5207 9.35733 18.5207 9.472C18.5207 9.552 18.5487 9.61733 18.6047 9.668C18.6634 9.71867 18.7367 9.75867 18.8247 9.788C18.9127 9.81733 19.0327 9.85067 19.1847 9.888C19.3927 9.936 19.5634 9.98667 19.6967 10.04C19.83 10.0907 19.9434 10.1693 20.0367 10.276C20.1327 10.3827 20.1807 10.5267 20.1807 10.708C20.1807 10.8627 20.138 11.0027 20.0527 11.128C19.97 11.2533 19.8434 11.3533 19.6727 11.428C19.502 11.5027 19.294 11.54 19.0487 11.54ZM7.288 14.068H7.78V15.184C7.636 15.2987 7.468 15.3867 7.276 15.448C7.084 15.5093 6.88667 15.54 6.684 15.54C6.39867 15.54 6.14133 15.4787 5.912 15.356C5.68267 15.2307 5.50267 15.0587 5.372 14.84C5.24133 14.6213 5.176 14.3747 5.176 14.1C5.176 13.8253 5.24133 13.5787 5.372 13.36C5.50267 13.1413 5.68267 12.9707 5.912 12.848C6.144 12.7227 6.404 12.66 6.692 12.66C6.92667 12.66 7.14 12.6987 7.332 12.776C7.524 12.8533 7.68533 12.9667 7.816 13.116L7.488 13.436C7.27467 13.2227 7.01733 13.116 6.716 13.116C6.51867 13.116 6.34267 13.1573 6.188 13.24C6.036 13.3227 5.916 13.4387 5.828 13.588C5.74267 13.7373 5.7 13.908 5.7 14.1C5.7 14.2867 5.74267 14.4547 5.828 14.604C5.916 14.7533 6.036 14.8707 6.188 14.956C6.34267 15.0413 6.51733 15.084 6.712 15.084C6.93067 15.084 7.12267 15.036 7.288 14.94V14.068ZM10.2818 14.852H8.88184L8.60584 15.5H8.06984L9.32984 12.7H9.84184L11.1058 15.5H10.5618L10.2818 14.852ZM10.1098 14.444L9.58184 13.22L9.05784 14.444H10.1098ZM14.0339 15.5L14.0299 13.644L13.1099 15.18H12.8779L11.9579 13.668V15.5H11.4619V12.7H11.8899L13.0019 14.556L14.0939 12.7H14.5219L14.5259 15.5H14.0339ZM17.3823 15.064V15.5H15.2823V12.7H17.3263V13.136H15.8023V13.864H17.1543V14.292H15.8023V15.064H17.3823Z" fill="white"/>
<path d="M8.66246 27.62C8.08246 27.62 7.56579 27.4767 7.11246 27.19C6.65913 26.9033 6.30246 26.49 6.04246 25.95C5.78913 25.4033 5.66246 24.7533 5.66246 24C5.66246 23.2467 5.78913 22.6 6.04246 22.06C6.30246 21.5133 6.65913 21.0967 7.11246 20.81C7.56579 20.5233 8.08246 20.38 8.66246 20.38C9.24246 20.38 9.75913 20.5233 10.2125 20.81C10.6658 21.0967 11.0191 21.5133 11.2725 22.06C11.5325 22.6 11.6625 23.2467 11.6625 24C11.6625 24.7533 11.5325 25.4033 11.2725 25.95C11.0191 26.49 10.6658 26.9033 10.2125 27.19C9.75913 27.4767 9.24246 27.62 8.66246 27.62ZM8.66246 26.25C9.08913 26.25 9.42246 26.0667 9.66246 25.7C9.90913 25.3333 10.0325 24.7667 10.0325 24C10.0325 23.2333 9.90913 22.6667 9.66246 22.3C9.42246 21.9333 9.08913 21.75 8.66246 21.75C8.24246 21.75 7.90913 21.9333 7.66246 22.3C7.42246 22.6667 7.30246 23.2333 7.30246 24C7.30246 24.7667 7.42246 25.3333 7.66246 25.7C7.90913 26.0667 8.24246 26.25 8.66246 26.25ZM14.8343 19.08H16.2243L12.9243 28.5H11.5343L14.8343 19.08ZM18.5703 23.13C19.5569 23.13 20.2836 23.3267 20.7503 23.72C21.2236 24.1133 21.4603 24.64 21.4603 25.3C21.4603 25.7267 21.3536 26.1167 21.1403 26.47C20.9269 26.8167 20.6003 27.0967 20.1603 27.31C19.7269 27.5167 19.1903 27.62 18.5503 27.62C18.0569 27.62 17.5703 27.5567 17.0903 27.43C16.6169 27.2967 16.2136 27.11 15.8803 26.87L16.5203 25.63C16.7869 25.83 17.0936 25.9867 17.4403 26.1C17.7869 26.2067 18.1436 26.26 18.5103 26.26C18.9169 26.26 19.2369 26.18 19.4703 26.02C19.7036 25.86 19.8203 25.6367 19.8203 25.35C19.8203 25.05 19.6969 24.8233 19.4503 24.67C19.2103 24.5167 18.7903 24.44 18.1903 24.44H16.4003L16.7603 20.5H21.0303V21.8H18.1103L18.0003 23.13H18.5703Z" fill="white"/>
<defs>
<linearGradient id="paint0_linear_83_7770" x1="44.0074" y1="5.0625" x2="-0.406888" y2="9.73069" gradientUnits="userSpaceOnUse">
<stop stop-color="#C100AD"/>
<stop offset="1" stop-color="#4DC1C8"/>
</linearGradient>
</defs>
</svg>
