<svg width="47" height="36" viewBox="0 0 47 36" fill="none" xmlns="http://www.w3.org/2000/svg">
<path d="M9.5 0H42C44.7614 0 47 2.23858 47 5V31C47 33.7614 44.7614 36 42 36H7.5L0.5 20.5L9.5 0Z" fill="url(#paint0_linear_83_7769)"/>
<path d="M28.6625 22.12C28.0825 22.12 27.5658 21.9767 27.1125 21.69C26.6591 21.4033 26.3025 20.99 26.0425 20.45C25.7891 19.9033 25.6625 19.2533 25.6625 18.5C25.6625 17.7467 25.7891 17.1 26.0425 16.56C26.3025 16.0133 26.6591 15.5967 27.1125 15.31C27.5658 15.0233 28.0825 14.88 28.6625 14.88C29.2425 14.88 29.7591 15.0233 30.2125 15.31C30.6658 15.5967 31.0191 16.0133 31.2725 16.56C31.5325 17.1 31.6625 17.7467 31.6625 18.5C31.6625 19.2533 31.5325 19.9033 31.2725 20.45C31.0191 20.99 30.6658 21.4033 30.2125 21.69C29.7591 21.9767 29.2425 22.12 28.6625 22.12ZM28.6625 20.75C29.0891 20.75 29.4225 20.5667 29.6625 20.2C29.9091 19.8333 30.0325 19.2667 30.0325 18.5C30.0325 17.7333 29.9091 17.1667 29.6625 16.8C29.4225 16.4333 29.0891 16.25 28.6625 16.25C28.2425 16.25 27.9091 16.4333 27.6625 16.8C27.4225 17.1667 27.3025 17.7333 27.3025 18.5C27.3025 19.2667 27.4225 19.8333 27.6625 20.2C27.9091 20.5667 28.2425 20.75 28.6625 20.75ZM34.8343 13.58H36.2243L32.9243 23H31.5343L34.8343 13.58ZM38.5703 17.63C39.5569 17.63 40.2836 17.8267 40.7503 18.22C41.2236 18.6133 41.4603 19.14 41.4603 19.8C41.4603 20.2267 41.3536 20.6167 41.1403 20.97C40.9269 21.3167 40.6003 21.5967 40.1603 21.81C39.7269 22.0167 39.1903 22.12 38.5503 22.12C38.0569 22.12 37.5703 22.0567 37.0903 21.93C36.6169 21.7967 36.2136 21.61 35.8803 21.37L36.5203 20.13C36.7869 20.33 37.0936 20.4867 37.4403 20.6C37.7869 20.7067 38.1436 20.76 38.5103 20.76C38.9169 20.76 39.2369 20.68 39.4703 20.52C39.7036 20.36 39.8203 20.1367 39.8203 19.85C39.8203 19.55 39.6969 19.3233 39.4503 19.17C39.2103 19.0167 38.7903 18.94 38.1903 18.94H36.4003L36.7603 15H41.0303V16.3H38.1103L38.0003 17.63H38.5703Z" fill="white"/>
<defs>
<linearGradient id="paint0_linear_83_7769" x1="3.49257" y1="5.0625" x2="47.9069" y2="9.73069" gradientUnits="userSpaceOnUse">
<stop stop-color="#4197E7"/>
<stop offset="1" stop-color="#3B49C8"/>
</linearGradient>
</defs>
</svg>
