<svg width="38" height="32" viewBox="0 0 38 32" fill="none" xmlns="http://www.w3.org/2000/svg">
<path d="M9.5 0H33C35.7614 0 38 2.23858 38 5V27C38 29.7614 35.7614 32 33 32H5L0 21.3333L9.5 0Z" fill="url(#paint0_linear_83_7771)"/>
<path d="M19.6625 20.12C19.0825 20.12 18.5658 19.9767 18.1125 19.69C17.6591 19.4033 17.3025 18.99 17.0425 18.45C16.7891 17.9033 16.6625 17.2533 16.6625 16.5C16.6625 15.7467 16.7891 15.1 17.0425 14.56C17.3025 14.0133 17.6591 13.5967 18.1125 13.31C18.5658 13.0233 19.0825 12.88 19.6625 12.88C20.2425 12.88 20.7591 13.0233 21.2125 13.31C21.6658 13.5967 22.0191 14.0133 22.2725 14.56C22.5325 15.1 22.6625 15.7467 22.6625 16.5C22.6625 17.2533 22.5325 17.9033 22.2725 18.45C22.0191 18.99 21.6658 19.4033 21.2125 19.69C20.7591 19.9767 20.2425 20.12 19.6625 20.12ZM19.6625 18.75C20.0891 18.75 20.4225 18.5667 20.6625 18.2C20.9091 17.8333 21.0325 17.2667 21.0325 16.5C21.0325 15.7333 20.9091 15.1667 20.6625 14.8C20.4225 14.4333 20.0891 14.25 19.6625 14.25C19.2425 14.25 18.9091 14.4333 18.6625 14.8C18.4225 15.1667 18.3025 15.7333 18.3025 16.5C18.3025 17.2667 18.4225 17.8333 18.6625 18.2C18.9091 18.5667 19.2425 18.75 19.6625 18.75ZM25.8343 11.58H27.2243L23.9243 21H22.5343L25.8343 11.58ZM29.5703 15.63C30.5569 15.63 31.2836 15.8267 31.7503 16.22C32.2236 16.6133 32.4603 17.14 32.4603 17.8C32.4603 18.2267 32.3536 18.6167 32.1403 18.97C31.9269 19.3167 31.6003 19.5967 31.1603 19.81C30.7269 20.0167 30.1903 20.12 29.5503 20.12C29.0569 20.12 28.5703 20.0567 28.0903 19.93C27.6169 19.7967 27.2136 19.61 26.8803 19.37L27.5203 18.13C27.7869 18.33 28.0936 18.4867 28.4403 18.6C28.7869 18.7067 29.1436 18.76 29.5103 18.76C29.9169 18.76 30.2369 18.68 30.4703 18.52C30.7036 18.36 30.8203 18.1367 30.8203 17.85C30.8203 17.55 30.6969 17.3233 30.4503 17.17C30.2103 17.0167 29.7903 16.94 29.1903 16.94H27.4003L27.7603 13H32.0303V14.3H29.1103L29.0003 15.63H29.5703Z" fill="white"/>
<defs>
<linearGradient id="paint0_linear_83_7771" x1="2.44554" y1="4.5" x2="38.8026" y2="8.01316" gradientUnits="userSpaceOnUse">
<stop stop-color="#006F68"/>
<stop offset="1" stop-color="#13B623"/>
</linearGradient>
</defs>
</svg>
