<svg width="56" height="40" viewBox="0 0 56 40" fill="none" xmlns="http://www.w3.org/2000/svg">
<path d="M9 0H51C53.7614 0 56 2.23858 56 5V35C56 37.7614 53.7614 40 51 40H9L0 20.5L9 0Z" fill="url(#paint0_linear_83_7767)"/>
<path d="M32.2274 24.668C31.4154 24.668 30.6921 24.4673 30.0574 24.066C29.4228 23.6647 28.9234 23.086 28.5594 22.33C28.2048 21.5647 28.0274 20.6547 28.0274 19.6C28.0274 18.5453 28.2048 17.64 28.5594 16.884C28.9234 16.1187 29.4228 15.5353 30.0574 15.134C30.6921 14.7327 31.4154 14.532 32.2274 14.532C33.0394 14.532 33.7628 14.7327 34.3974 15.134C35.0321 15.5353 35.5268 16.1187 35.8814 16.884C36.2454 17.64 36.4274 18.5453 36.4274 19.6C36.4274 20.6547 36.2454 21.5647 35.8814 22.33C35.5268 23.086 35.0321 23.6647 34.3974 24.066C33.7628 24.4673 33.0394 24.668 32.2274 24.668ZM32.2274 22.75C32.8248 22.75 33.2914 22.4933 33.6274 21.98C33.9728 21.4667 34.1454 20.6733 34.1454 19.6C34.1454 18.5267 33.9728 17.7333 33.6274 17.22C33.2914 16.7067 32.8248 16.45 32.2274 16.45C31.6394 16.45 31.1728 16.7067 30.8274 17.22C30.4914 17.7333 30.3234 18.5267 30.3234 19.6C30.3234 20.6733 30.4914 21.4667 30.8274 21.98C31.1728 22.4933 31.6394 22.75 32.2274 22.75ZM40.868 12.712H42.814L38.194 25.9H36.248L40.868 12.712ZM46.0984 18.382C47.4797 18.382 48.497 18.6573 49.1504 19.208C49.813 19.7587 50.1444 20.496 50.1444 21.42C50.1444 22.0173 49.995 22.5633 49.6964 23.058C49.3977 23.5433 48.9404 23.9353 48.3244 24.234C47.7177 24.5233 46.9664 24.668 46.0704 24.668C45.3797 24.668 44.6984 24.5793 44.0264 24.402C43.3637 24.2153 42.799 23.954 42.3324 23.618L43.2284 21.882C43.6017 22.162 44.031 22.3813 44.5164 22.54C45.0017 22.6893 45.501 22.764 46.0144 22.764C46.5837 22.764 47.0317 22.652 47.3584 22.428C47.685 22.204 47.8484 21.8913 47.8484 21.49C47.8484 21.07 47.6757 20.7527 47.3304 20.538C46.9944 20.3233 46.4064 20.216 45.5664 20.216H43.0604L43.5644 14.7H49.5424V16.52H45.4544L45.3004 18.382H46.0984Z" fill="white"/>
<defs>
<linearGradient id="paint0_linear_83_7767" x1="3.60396" y1="5.625" x2="56.9902" y2="11.7068" gradientUnits="userSpaceOnUse">
<stop stop-color="#5500C1"/>
<stop offset="1" stop-color="#420D85"/>
</linearGradient>
</defs>
</svg>
